<?xml version="1.0" encoding="utf-8"?>
<!-- Generator: Adobe Illustrator 23.0.2, SVG Export Plug-In . SVG Version: 6.00 Build 0)  -->
<svg version="1.1" id="Layer_1" xmlns="http://www.w3.org/2000/svg" xmlns:xlink="http://www.w3.org/1999/xlink" x="0px" y="0px"
	 viewBox="0 0 11.6 44.3" style="enable-background:new 0 0 11.6 44.3;" xml:space="preserve">
<title>Asset 81</title>
<g>
	<g id="Layer_1-2">
		<path d="M2.4,0c1.5,0,2.7,0,4,0C7,0,7.6,0.1,8.3,0.1C8.1,4,7.7,7.8,7.6,11.6s-1.2,8.1,4,10.5c-4.5,2.3-3.9,6-3.8,9.4
			c0.2,4.2,0.4,8.3,0.7,12.7H2.2c0.2-4.2,0.4-8.3,0.7-12.4c0.3-5.5,0.4-5.5-2.9-9.6c0-0.2,0-0.4,0.1-0.5c2.9-2.1,3.3-5,3-8.4
			C2.8,9.1,2.7,4.7,2.4,0z"/>
	</g>
</g>
</svg>
