<?xml version="1.0" encoding="utf-8"?>
<!-- Generator: Adobe Illustrator 23.0.2, SVG Export Plug-In . SVG Version: 6.00 Build 0)  -->
<svg version="1.1" id="Layer_1" xmlns="http://www.w3.org/2000/svg" xmlns:xlink="http://www.w3.org/1999/xlink" x="0px" y="0px"
	 viewBox="0 0 24 46.1" style="enable-background:new 0 0 24 46.1;" xml:space="preserve">
<title>Asset 105</title>
<g>
	<g id="Layer_1-2">
		<path d="M4.6,46.1H0v-46C0.6,0.1,1.4,0,2.1,0C3,0,4,0,5,0L4.4,12.2C8.8,11.6,11.6,7,12,0.1h4.9c-0.3,4.6-2.2,8.9-5.5,12.1
			C10,13.6,8.6,14.8,7,15.7c-2.4,1.3-3,3.1-2.2,5.9c4.3-1.7,7.9-4.7,10.5-8.5c2.7-3.8,4-8.4,3.6-13H24c-0.5,7.5-3.9,14.5-9.6,19.4
			c-2.6,2.2-5.4,4.2-8.2,6.1c-1.1,0.6-1.8,1.8-1.7,3.1C4.6,34.4,4.6,40.1,4.6,46.1z"/>
	</g>
</g>
</svg>
