<?xml version="1.0" encoding="utf-8"?>
<!-- Generator: Adobe Illustrator 23.0.2, SVG Export Plug-In . SVG Version: 6.00 Build 0)  -->
<svg version="1.1" id="Layer_1" xmlns="http://www.w3.org/2000/svg" xmlns:xlink="http://www.w3.org/1999/xlink" x="0px" y="0px"
	 viewBox="0 0 23.8 46.1" style="enable-background:new 0 0 23.8 46.1;" xml:space="preserve">
<style type="text/css">
	.st0{fill:#231F20;}
</style>
<title>Asset 8</title>
<g>
	<g id="Layer_1-2">
		<path class="st0" d="M8.5,46.1H0.2v-1c0.1-3.3,0.3-6.5,0.4-9.7C1.1,24.1,1.7,12.6,0.2,1.1L0,0h8.5L8.4,1.1C8.3,1.7,8.3,2.3,8.2,3
			C8.1,4.3,7.9,5.5,7.9,6.7c-0.1,1.5-0.1,3-0.1,4.5c-0.1,2.5-0.1,5.1-0.3,7.6c-0.3,2.8,0.8,5.6,3,7.4c2.8,2.6,5.6,5.2,8.4,7.8l2.1,2
			c0.5,0.4,0.9,0.8,1.4,1.2l0.7,0.6l0.8,0.7l-5.3,5.5L7.8,32L8.5,46.1z M2.2,44.1h4.1L5.7,29.8L7.8,29l10.8,12l2.3-2.4
			c-0.5-0.4-0.9-0.8-1.3-1.2l-2.1-2c-2.8-2.5-5.6-5.2-8.4-7.8c-2.6-2.2-3.9-5.6-3.6-9c0.2-2.5,0.3-5,0.3-7.4c0-1.5,0.1-3,0.1-4.5
			c0.1-1.3,0.2-2.5,0.3-3.9c0-0.3,0-0.5,0.1-0.8h-4c1.4,11.3,0.8,22.5,0.3,33.4C2.5,38.2,2.3,41.2,2.2,44.1z"/>
	</g>
</g>
</svg>
