<?xml version="1.0" encoding="utf-8"?>
<!-- Generator: Adobe Illustrator 23.0.2, SVG Export Plug-In . SVG Version: 6.00 Build 0)  -->
<svg version="1.1" id="Layer_1" xmlns="http://www.w3.org/2000/svg" xmlns:xlink="http://www.w3.org/1999/xlink" x="0px" y="0px"
	 viewBox="0 0 31.5 42.7" style="enable-background:new 0 0 31.5 42.7;" xml:space="preserve">
<title>Asset 102</title>
<g>
	<g id="Layer_1-2">
		<path d="M18.5,42.7h-5.9c0-2-0.1-3.8,0-5.7c0.2-5.6,0.5-11.3,0.6-16.9c-0.2-1.1-0.8-2-1.8-2.6C5.8,14.2,1.9,8.9,0.4,2.6
			C0.3,1.8,0.2,1,0,0h5.6c-0.5,6.1,2.1,10.5,7.8,13.9L12.5,0h5.9l-0.9,12.8l0.7,0.3c4.1-3.3,7.4-7,7.8-13h5.6
			c-0.3,4.2-2.1,8.2-5.1,11.2c-2,2.2-4.3,4.1-6.8,5.8c-1.5,0.8-2.3,2.5-2,4.2c0.4,6.3,0.6,12.6,0.9,18.9
			C18.5,41,18.5,41.8,18.5,42.7z"/>
	</g>
</g>
</svg>
