<?xml version="1.0" encoding="utf-8"?>
<!-- Generator: Adobe Illustrator 23.0.2, SVG Export Plug-In . SVG Version: 6.00 Build 0)  -->
<svg version="1.1" id="Layer_1" xmlns="http://www.w3.org/2000/svg" xmlns:xlink="http://www.w3.org/1999/xlink" x="0px" y="0px"
	 viewBox="0 0 29.1 45.4" style="enable-background:new 0 0 29.1 45.4;" xml:space="preserve">
<title>Asset 120</title>
<g>
	<g id="Layer_1-2">
		<path d="M16.5,18.3c0,1.9,0.1,3.1,0,4.4c-0.3,1.5,0.6,2.9,2,3.4c3.5,1.6,6.8,3.5,10.5,5.4l-2.8,4.9L17,30.2v15.2h-5.5
			c0-4.5-0.4-8.9,0.1-13.3c0.4-3.9-0.5-6.3-4.2-7.7c-2.5-1-4.9-2.3-7.5-3.6c0.9-1.6,1.8-3.1,2.7-4.5l9.1,6.2
			c0.2-1.9,0.3-3.8,0.3-5.6c-0.2-0.9-0.7-1.6-1.4-2.1c-3.4-1.9-6.9-3.7-10.5-5.6l2.6-4.4l8.8,6l0.7-0.3C11.9,7,11.6,3.6,11.3,0H17
			c-0.3,3.6-0.4,7.1-0.8,10.6c-0.3,2.1,0.5,3.1,2.3,4c3.5,1.7,7,3.5,10.6,5.4l-2.8,4.9L16.5,18.3z"/>
	</g>
</g>
</svg>
