<?xml version="1.0" encoding="utf-8"?>
<!-- Generator: Adobe Illustrator 23.0.2, SVG Export Plug-In . SVG Version: 6.00 Build 0)  -->
<svg version="1.1" id="Layer_1" xmlns="http://www.w3.org/2000/svg" xmlns:xlink="http://www.w3.org/1999/xlink" x="0px" y="0px"
	 viewBox="0 0 38.6 38.6" style="enable-background:new 0 0 38.6 38.6;" xml:space="preserve">
<title>Asset 150</title>
<g>
	<g id="Layer_1-2">
		<path d="M19.4,0C30,0,38.6,8.6,38.6,19.2c0,0,0,0,0,0.1c0,10.7-8.7,19.4-19.4,19.4c0,0,0,0,0,0C8.6,38.5,0.1,29.9,0,19.3
			C0,8.7,8.6,0,19.2,0C19.3,0,19.4,0,19.4,0z M17,21.6L5.2,22.4c0.9,5.7,5.3,10.1,11,11C16.5,29.6,16.8,25.9,17,21.6z M22.4,33.5
			c6.1-1.4,10.8-6.4,10.8-11.2l-11.6-0.7C21.9,25.8,22.2,29.5,22.4,33.5L22.4,33.5z M5.2,16.2L17,16.9c-0.3-4.2-0.5-7.9-0.8-11.7
			C10.5,6.1,6.1,10.5,5.2,16.2z M21.6,16.9l11.8-0.7c-0.9-5.7-5.3-10.1-11-11C22.2,8.9,21.9,12.6,21.6,16.9z"/>
	</g>
</g>
</svg>
