<?xml version="1.0" encoding="utf-8"?>
<!-- Generator: Adobe Illustrator 23.0.2, SVG Export Plug-In . SVG Version: 6.00 Build 0)  -->
<svg version="1.1" id="Layer_1" xmlns="http://www.w3.org/2000/svg" xmlns:xlink="http://www.w3.org/1999/xlink" x="0px" y="0px"
	 viewBox="0 0 33.7 43.4" style="enable-background:new 0 0 33.7 43.4;" xml:space="preserve">
<title>Asset 148</title>
<g>
	<g id="Layer_1-2">
		<path d="M0.8,0.1l16.5,13.2L33.7,0v43.4h-5c0.2-3.6,0.5-7.1,0.5-10.5c0-1.2-0.5-2.4-1.4-3.3c-3.5-3.4-7.2-6.5-11-10
			C13,23.1,9.3,26.4,5.7,29.7c-0.5,0.8-0.7,1.7-0.6,2.6c0.1,3.7,0.4,7.3,0.6,11.1H0V0.3L0.8,0.1z M4.9,23l8.3-6.5L4.9,9.4V23z
			 M29.3,9l-8.4,7.2l8.4,6.4L29.3,9z"/>
	</g>
</g>
</svg>
