<?xml version="1.0" encoding="utf-8"?>
<!-- Generator: Adobe Illustrator 23.0.2, SVG Export Plug-In . SVG Version: 6.00 Build 0)  -->
<svg version="1.1" id="Layer_1" xmlns="http://www.w3.org/2000/svg" xmlns:xlink="http://www.w3.org/1999/xlink" x="0px" y="0px"
	 viewBox="0 0 39.5 52.5" style="enable-background:new 0 0 39.5 52.5;" xml:space="preserve">
<title>Asset 145</title>
<g>
	<g id="Layer_1-2">
		<path d="M11,29.9l-6.4,7.2l-4.4-4.5l7.2-6.3L0,19.8l4.7-4.2l6.3,7c4.5-3,7.5-6.6,6.7-12.3C17.2,6.9,17.1,3.5,16.8,0h6
			c-0.3,3.2-0.4,6.3-0.9,9.4c-0.9,5.9,1.5,10.1,6.7,13.1l6.5-7.3l4.3,4.6l-7.3,6.4l7.3,6.5l-4.6,4.2L28.7,30
			c-4.6,2.9-7.1,6.6-6.4,12.2c0.4,3.4,0.5,6.8,0.7,10.4h-6.4c0.3-3.8,0.3-7.5,0.8-11.2C18.1,36,15.1,32.9,11,29.9z M19.9,21.2
			L14.4,26l5.1,5.4l6-5.1L19.9,21.2z"/>
	</g>
</g>
</svg>
