<?xml version="1.0" encoding="utf-8"?>
<!-- Generator: Adobe Illustrator 23.0.2, SVG Export Plug-In . SVG Version: 6.00 Build 0)  -->
<svg version="1.1" id="Layer_1" xmlns="http://www.w3.org/2000/svg" xmlns:xlink="http://www.w3.org/1999/xlink" x="0px" y="0px"
	 viewBox="0 0 37 47.1" style="enable-background:new 0 0 37 47.1;" xml:space="preserve">
<title>Asset 142</title>
<g>
	<g id="Layer_1-2">
		<path d="M4,47l-4-4c2.3-2,4.7-4.2,7-6.4c1.4-1.3,2.6-2.8,4.1-3.8c4.9-3.1,5.6-7.8,5.1-12.9c-0.2-1.1-0.7-2-1.5-2.8
			C10,12.7,5.1,8.3,0.1,3.7L3.6,0c4.1,4.3,8.1,8.4,12.1,12.6l0.7-0.3C16,8.6,15.8,4.8,15.5,0.9h6l-0.9,11.7l0.6,0.4L33,0.1l3.8,4.1
			c-4.5,4.2-9.2,8.7-14,13c-1.4,1.2-2.1,3-2.2,4.8c-0.5,4.9,1.2,8.4,5,11.4S33.1,40,37,43.3l-3.6,3.8L21.7,34.9l-0.6,0.3l0.5,11
			h-6.3c0.2-3.9,0.4-7.7,0.6-12.2L4,47z"/>
	</g>
</g>
</svg>
