<?xml version="1.0" encoding="utf-8"?>
<!-- Generator: Adobe Illustrator 23.0.2, SVG Export Plug-In . SVG Version: 6.00 Build 0)  -->
<svg version="1.1" id="Layer_1" xmlns="http://www.w3.org/2000/svg" xmlns:xlink="http://www.w3.org/1999/xlink" x="0px" y="0px"
	 viewBox="0 0 45.5 28.6" style="enable-background:new 0 0 45.5 28.6;" xml:space="preserve">
<title>Asset 139</title>
<g>
	<g id="Layer_1-2">
		<path d="M0,14c2.7-2.2,5.1-4.3,7.6-6.1c9.2-6.6,19.3-6.2,28,1c0.3,0.2,0.5,0.4,1.4,1.1l1.4-10h7.1c-1.6,4.4-3.2,8.3-4.5,12.3
			c-0.4,1-0.3,2.2,0.1,3.2c2.2,4.1,3.5,8.5,3.8,13.1h-6.7c-0.5-3.1-1-6.2-1.6-9.9C30.4,24.4,23.8,26.9,16,25C9.4,23.4,4.2,19.6,0,14
			z M33.5,14.6c-6-8.6-18.9-8.6-24-0.1C15.6,21.6,26.7,22.7,33.5,14.6L33.5,14.6z"/>
	</g>
</g>
</svg>
