<?xml version="1.0" encoding="utf-8"?>
<!-- Generator: Adobe Illustrator 23.0.2, SVG Export Plug-In . SVG Version: 6.00 Build 0)  -->
<svg version="1.1" id="Layer_1" xmlns="http://www.w3.org/2000/svg" xmlns:xlink="http://www.w3.org/1999/xlink" x="0px" y="0px"
	 viewBox="0 0 39.9 31.2" style="enable-background:new 0 0 39.9 31.2;" xml:space="preserve">
<title>Asset 137</title>
<g>
	<g id="Layer_1-2">
		<path d="M4.9,23.8c4.5-3,8.4-5.5,12.1-8.2c0.7-0.7,1-1.7,1-2.6c0-2.7-0.3-5.4-0.5-8.3h5.4l-0.8,7.6L39.9,0v30.3h-5.3v-21
			c-2.5,1.6-4.6,3.4-7.1,4.4c-5,2.1-5.9,5.8-4.7,10.5c0.2,1,0.2,2.1,0.2,3.1h-5.8l0.5-7.1L1,31.2C0.7,21.3,0.3,11.7,0,2h5.8
			C5.5,9.1,5.2,16,4.9,23.8z"/>
	</g>
</g>
</svg>
