<?xml version="1.0" encoding="utf-8"?>
<!-- Generator: Adobe Illustrator 23.0.2, SVG Export Plug-In . SVG Version: 6.00 Build 0)  -->
<svg version="1.1" id="Layer_1" xmlns="http://www.w3.org/2000/svg" xmlns:xlink="http://www.w3.org/1999/xlink" x="0px" y="0px"
	 viewBox="0 0 31.7 50" style="enable-background:new 0 0 31.7 50;" xml:space="preserve">
<title>Asset 134</title>
<g>
	<g id="Layer_1-2">
		<path d="M3.5,18l-3.3-3.8L15.6,0l15.9,14.4l-3.3,3.1l-9-9.6c-1.9,4.7-1.3,7.8,2.1,10.9s6.8,6.1,10.4,9.3l-3.2,3.4l-9.8-10.3
			l-0.7,0.3C18.4,31,18.7,40.4,19,50h-6c0.3-9.6,0.6-19.1,0.9-28.5l-0.7-0.3L3.6,31.6L0,28.2c3.4-3.1,6.4-6.4,9.9-9
			c4.1-3,4.4-6.6,3-11.3L3.5,18z"/>
	</g>
</g>
</svg>
