<?xml version="1.0" encoding="utf-8"?>
<!-- Generator: Adobe Illustrator 23.0.2, SVG Export Plug-In . SVG Version: 6.00 Build 0)  -->
<svg version="1.1" id="Layer_1" xmlns="http://www.w3.org/2000/svg" xmlns:xlink="http://www.w3.org/1999/xlink" x="0px" y="0px"
	 viewBox="0 0 30.2 46.1" style="enable-background:new 0 0 30.2 46.1;" xml:space="preserve">
<style type="text/css">
	.st0{fill:#231F20;}
</style>
<title>Asset 36</title>
<g>
	<g id="Layer_1-2">
		<path class="st0" d="M19.1,46.1h-8.3l0.1-1c0-0.7,0.1-1.3,0.1-2c0.2-1.4,0.2-2.9,0.2-4.3c0-1.1-0.4-2.3-1.1-3.2
			c-2.1-2.5-4.4-4.9-6.7-7.5c-0.9-1-1.8-2-2.7-3L0,24.5l0.6-0.7c0.6-0.6,1.2-1.3,1.8-2.1c1.6-2,3.4-3.8,5.3-5.4
			c3.7-2.9,4.7-6.5,3.5-12.5C11.1,3.3,11,2.6,11,2c0-0.3,0-0.6,0.1-0.8c0-0.1,0-0.2,0.1-0.3L11.3,0h7.9l-0.1,1.1
			c-0.1,0.8-0.2,1.6-0.2,2.4c-0.2,1.9-0.3,3.7-0.6,5.5c-0.3,1.6,0.2,3.3,1.5,4.4c2.5,2.5,4.8,5,7.1,7.5c0.9,1,1.8,2,2.7,3l0.6,0.7
			l-0.6,0.7c-0.7,0.8-1.4,1.6-2.1,2.4c-1.5,1.9-3.2,3.6-5,5.2C19,35.9,18,38.5,19,42c0.2,0.7,0.2,1.5,0.1,2.2c0,0.3,0,0.6,0,0.9
			L19.1,46.1z M13,44.1h4.2V44c0.1-0.5,0.1-1,0-1.5c-1.6-5.5,1.4-8.8,4.1-11.2c1.7-1.5,3.3-3.2,4.7-5c0.5-0.6,1-1.2,1.5-1.8
			l-2.1-2.3c-2.3-2.5-4.6-5-7-7.5c-1.7-1.6-2.4-3.9-2-6.1c0.3-1.8,0.4-3.5,0.6-5.4L17,2h-4c0,0.5,0.1,1,0.2,1.5
			c1,4.7,1.3,10.1-4.2,14.4c-1.8,1.6-3.5,3.3-5,5.2c-0.4,0.5-0.8,1-1.3,1.5l2.1,2.3c2.4,2.6,4.6,5,6.8,7.5c1,1.3,1.5,2.8,1.6,4.3
			c0,1.5,0,3.1-0.2,4.6C13,43.5,13,43.8,13,44.1L13,44.1z M13.6,33.7l-8.5-8.8l8.5-8L13.6,33.7z M7.9,24.9l3.7,3.8v-7.3L7.9,24.9z
			 M16.5,33.2V16.9l8.9,8.2L16.5,33.2z M18.5,21.5v7.2l3.9-3.6L18.5,21.5z"/>
	</g>
</g>
</svg>
