<?xml version="1.0" encoding="utf-8"?>
<!-- Generator: Adobe Illustrator 23.0.2, SVG Export Plug-In . SVG Version: 6.00 Build 0)  -->
<svg version="1.1" id="Layer_1" xmlns="http://www.w3.org/2000/svg" xmlns:xlink="http://www.w3.org/1999/xlink" x="0px" y="0px"
	 viewBox="0 0 24.7 46.8" style="enable-background:new 0 0 24.7 46.8;" xml:space="preserve">
<style type="text/css">
	.st0{fill:#231F20;}
</style>
<title>Asset 32</title>
<g>
	<g id="Layer_1-2">
		<path class="st0" d="M4.3,46.8H2.8c-0.3,0-0.7,0-1.1-0.1L0,46.6L0.9,0l1.4,0.6l0.6,0.3c0.5,0.2,0.9,0.4,1.3,0.6
			c6.1,4,10.7,9.7,14.4,18c3.3,7.2,5.2,15.5,6.1,26l0.1,1.1h-8.2l0.1-1.1c0.8-13.2-2.2-23.8-9.3-32.2v0.1L7.4,23
			c0.1,6.3,0.3,12.6,0.4,18.9c0,2.2,0.1,3.4-0.8,4.2C6.5,46.7,5.7,46.8,4.3,46.8z M2,44.7c0.3,0,0.5,0,0.8,0c1,0.1,1.9,0.1,2.9-0.1
			c0.2-0.9,0.2-1.8,0.2-2.8C5.7,35.6,5.6,29.3,5.4,23l-0.2-9.5c0-0.6,0-1.2,0-1.9V8.3L7,10.1c8.5,8.9,12.3,20.2,11.6,34.5h3.9
			c-0.9-9.8-2.8-17.5-5.8-24.3C13.2,12.4,8.9,7,3.1,3.3L2.8,3.1L2,44.7z"/>
	</g>
</g>
</svg>
