<?xml version="1.0" encoding="utf-8"?>
<!-- Generator: Adobe Illustrator 23.0.2, SVG Export Plug-In . SVG Version: 6.00 Build 0)  -->
<svg version="1.1" id="Layer_1" xmlns="http://www.w3.org/2000/svg" xmlns:xlink="http://www.w3.org/1999/xlink" x="0px" y="0px"
	 viewBox="0 0 31.4 45.7" style="enable-background:new 0 0 31.4 45.7;" xml:space="preserve">
<style type="text/css">
	.st0{fill:#231F20;}
</style>
<title>Asset 17</title>
<g>
	<g id="Layer_1-2">
		<path class="st0" d="M22.9,45.7H15v-1c0-0.4,0-0.8,0-1.1c0-0.8,0-1.7,0-2.6l0.1-2.5c0.2-4.4,0.4-8.9,0.7-13.4
			c0.2-1.1-0.3-2.2-1.3-2.8c-3.3-2.5-6.5-5-9.9-7.6L0,11l4.7-5.8L16,15.3L15.1,0h8.1l-0.1,1.1c-0.1,0.7-0.1,1.4-0.2,2.1
			c-0.1,1.5-0.3,3-0.4,4.4c-0.2,4.1-0.3,7.4-0.3,10.9c0.1,0.7,0.4,1.4,1,1.9c1.6,1.3,3.3,2.4,5,3.6l2.2,1.5l0.9,0.6L26,32.8
			l-3.1-2.9L22.9,45.7z M17,43.7h3.9V25.4l4.9,4.5l2.6-3.2l-1.3-0.9c-1.8-1.2-3.5-2.4-5.1-3.7c-1-0.9-1.7-2.1-1.8-3.5
			c-0.1-3.8,0.1-7.8,0.3-11.1c0.1-1.5,0.2-3,0.4-4.6c0-0.3,0.1-0.7,0.1-1h-3.8l0.9,14.9L16.1,18L4.9,8.1l-2.1,2.6L6,13.1
			c3.4,2.6,6.6,5.1,9.8,7.6c1.5,1,2.3,2.8,2.1,4.6c-0.3,4.4-0.5,9-0.7,13.4L17,41.1c0,0.8,0,1.7,0,2.5C17,43.6,17,43.7,17,43.7
			L17,43.7z"/>
	</g>
</g>
</svg>
