<?xml version="1.0" encoding="utf-8"?>
<!-- Generator: Adobe Illustrator 23.0.2, SVG Export Plug-In . SVG Version: 6.00 Build 0)  -->
<svg version="1.1" id="Layer_1" xmlns="http://www.w3.org/2000/svg" xmlns:xlink="http://www.w3.org/1999/xlink" x="0px" y="0px"
	 viewBox="0 0 26.1 48.1" style="enable-background:new 0 0 26.1 48.1;" xml:space="preserve">
<style type="text/css">
	.st0{fill:#231F20;}
</style>
<title>Asset 30</title>
<g>
	<g id="Layer_1-2">
		<path class="st0" d="M6.6,48.1H0V0.2l1.5-0.1C2,0.1,2.5,0,3.1,0h4L6.4,12c3.2-1.2,5.2-5.2,5.6-10.9v-1h14.1L26,1.2
			c-0.5,7.7-4.1,14.9-9.9,20c-2.6,2.2-5.4,4.3-8.4,6.1c-0.8,0.4-1.3,1.3-1.2,2.3c0,4.2,0,8.2,0,12.6L6.6,48.1z M2,46.1h2.6v-3.9
			c0-4.3,0-8.4,0-12.5c-0.1-1.6,0.7-3.2,2.1-4c2.8-1.8,5.6-3.8,8.1-6c5.2-4.5,8.4-10.8,9.1-17.6h-3c0.1,4.5-1.3,8.9-3.9,12.6
			c-2.7,4-6.5,7-10.9,8.8l-1,0.4l-0.3-1.1c-0.9-3.3-0.1-5.5,2.6-7c1.5-0.9,2.9-2.1,4.2-3.4c2.9-2.8,4.7-6.4,5.1-10.4h-2.8
			C13.3,9,10.2,13.6,5.5,14.2l-1.2,0.2L5,2H3.2C2.8,2,2.4,2,2,2.1V46.1z M18.9,0.5l-0.1,0.7C18.5,6,16.5,10.6,13,13.9
			c-1.4,1.4-2.9,2.7-4.6,3.7c-1.4,0.6-2.2,2.1-1.9,3.6c3.6-1.7,6.7-4.3,9-7.6c2.5-3.6,3.7-8,3.4-12.4L18.9,0.5z"/>
	</g>
</g>
</svg>
