<?xml version="1.0" encoding="utf-8"?>
<!-- Generator: Adobe Illustrator 23.0.2, SVG Export Plug-In . SVG Version: 6.00 Build 0)  -->
<svg version="1.1" id="Layer_1" xmlns="http://www.w3.org/2000/svg" xmlns:xlink="http://www.w3.org/1999/xlink" x="0px" y="0px"
	 viewBox="0 0 24 49.9" style="enable-background:new 0 0 24 49.9;" xml:space="preserve">
<style type="text/css">
	.st0{fill:#231F20;}
</style>
<title>Asset 21</title>
<g>
	<g id="Layer_1-2">
		<path class="st0" d="M7.2,49.9H0V0l24,18l-0.9,0.8l-4.1,4c-3.5,3.5-6.9,6.7-10.4,9.9c-1.5,1.2-2.3,3.1-2,5
			c0.2,2.6,0.3,5.1,0.5,7.8c0,1.1,0.1,2.3,0.2,3.4L7.2,49.9z M2,47.9h3.1c0-0.8-0.1-1.6-0.1-2.4c-0.1-2.6-0.2-5.1-0.5-7.7
			c-0.3-2.5,0.7-5,2.7-6.6c3.5-3.2,6.8-6.4,10.3-9.9l3.4-3.3L2,4V47.9z M4.6,28.8V8.6l12,9.6L4.6,28.8z M6.6,12.8v11.6l6.9-6
			L6.6,12.8z"/>
	</g>
</g>
</svg>
