<?xml version="1.0" encoding="utf-8"?>
<!-- Generator: Adobe Illustrator 23.0.2, SVG Export Plug-In . SVG Version: 6.00 Build 0)  -->
<svg version="1.1" id="Layer_1" xmlns="http://www.w3.org/2000/svg" xmlns:xlink="http://www.w3.org/1999/xlink" x="0px" y="0px"
	 viewBox="0 0 34.3 46.1" style="enable-background:new 0 0 34.3 46.1;" xml:space="preserve">
<style type="text/css">
	.st0{fill:#231F20;}
</style>
<title>Asset 58</title>
<g>
	<g id="Layer_1-2">
		<path class="st0" d="M28.4,46.1L17.1,34.6L6.8,45.8l-6-5.7L12,29.8L0,17.4L16.6,0l17.5,17.4L22,28.7l12.3,11.1L28.4,46.1z
			 M17,31.7l11.4,11.5l3.1-3.2L19,28.7l12.2-11.4L16.6,2.9L2.8,17.4l12.1,12.5L3.7,40.2l3,2.8L17,31.7z M17.4,27.4L6.7,17.5
			L17.6,6.9l9.8,10.2L17.4,27.4z M9.6,17.5l7.7,7.1l7.2-7.5l-7.1-7.3L9.6,17.5z"/>
	</g>
</g>
</svg>
