<?xml version="1.0" encoding="utf-8"?>
<!-- Generator: Adobe Illustrator 23.0.2, SVG Export Plug-In . SVG Version: 6.00 Build 0)  -->
<svg version="1.1" id="Layer_1" xmlns="http://www.w3.org/2000/svg" xmlns:xlink="http://www.w3.org/1999/xlink" x="0px" y="0px"
	 viewBox="0 0 28.4 51.5" style="enable-background:new 0 0 28.4 51.5;" xml:space="preserve">
<style type="text/css">
	.st0{fill:#231F20;}
</style>
<title>Asset 15</title>
<g>
	<g id="Layer_1-2">
		<path class="st0" d="M12.6,51.5H4.3L5,39c0-0.6,0.1-1.1,0.2-1.7c0.7-3.7-0.4-6-3.5-7.6l-1.7-1l1.8-0.9c3.7-1.8,3.6-4.5,3.6-7.9
			v-0.5c-0.1-4-0.1-7.9,0-12.1c0-1.8,0-3.5,0-5.3V0l23.1,19l-5.6,6.3L11.7,14.7c0,0.6,0,1.1,0,1.6c-0.1,2.9-0.1,5.8,0.2,8.6
			c0.1,0.5,0.9,1.2,1.6,1.9c0.5,0.5,1,1,1.5,1.5l0.9,1L14.7,30c-3.5,1.8-3.3,4.7-3,8.1c0,0.5,0.1,1,0.1,1.5c0.1,2.4,0.3,4.9,0.5,7.4
			L12.6,51.5z M6.5,49.5h4l-0.2-2.4c-0.2-2.5-0.3-5-0.5-7.4c0-0.5-0.1-1-0.1-1.5c-0.3-3.2-0.6-6.9,2.9-9.3l-0.5-0.4
			c-1.1-1-2.1-1.9-2.3-3.2c-0.2-3-0.3-5.9-0.2-8.9c0-1.3,0.1-2.6,0.1-3.9v-2.3l12.9,12.4l2.8-3.2L7.3,4.2c0,1.1,0,2.2,0,3.2
			c0,4.1,0,8,0,12V20c0.1,3,0.2,6.4-3.2,8.8c3.6,2.7,3.5,6.3,3,8.9C7,38.1,7,38.6,7,39v0.5L6.5,49.5z"/>
	</g>
</g>
</svg>
