<?xml version="1.0" encoding="utf-8"?>
<!-- Generator: Adobe Illustrator 23.0.2, SVG Export Plug-In . SVG Version: 6.00 Build 0)  -->
<svg version="1.1" id="Layer_1" xmlns="http://www.w3.org/2000/svg" xmlns:xlink="http://www.w3.org/1999/xlink" x="0px" y="0px"
	 viewBox="0 0 31.9 47.4" style="enable-background:new 0 0 31.9 47.4;" xml:space="preserve">
<style type="text/css">
	.st0{fill:#231F20;}
</style>
<title>Asset 45</title>
<g>
	<g id="Layer_1-2">
		<path class="st0" d="M19.5,47.4H12v-1c0-1.3,0-2.7-0.1-4c-0.2-3.1-0.1-6.3,0.2-9.4c0.4-3.7-0.5-5.5-3.6-6.7
			c-1.8-0.7-3.4-1.5-5.2-2.4c-0.8-0.4-1.6-0.8-2.4-1.2l-1-0.5l3.8-6.4l8.5,5.8c0-0.1,0-0.2,0-0.3c0.1-1.2,0.2-2.3,0.1-3.5
			c-0.2-0.5-0.5-1-0.9-1.3c-2.5-1.4-5-2.7-7.6-4.1L1,11.1l-0.9-0.5l3.7-6.2l8.7,5.9L11.7,0h7.8l-0.1,1.1c-0.1,1.1-0.1,2.1-0.2,3.2
			c-0.2,2.5-0.3,5-0.6,7.5c-0.2,1.6,0.2,2.3,1.7,3c2.5,1.2,4.9,2.4,7.5,3.8l3.2,1.6l0.9,0.5L28,27.3l-9-6c0,0.9,0,1.8,0,2.6
			c-0.3,1.1,0.4,2.1,1.4,2.4c2.5,1.2,4.9,2.4,7.4,3.7l3.2,1.7l0.9,0.5L28,38.8l-8.5-5.7L19.5,47.4z M14,45.4h3.5v-16l9.9,6.6l1.7-3
			l-2.3-1.2c-2.5-1.3-4.9-2.5-7.3-3.7c-1.8-0.7-2.9-2.5-2.6-4.4c0.1-0.9,0.1-1.7,0-2.6c0-0.5,0-1.1,0-1.7v-1.9l10.4,7l1.8-3
			l-2.3-1.2c-2.5-1.3-4.9-2.6-7.4-3.7c-2.1-0.7-3.3-2.9-2.8-5c0.3-2.4,0.5-5,0.6-7.4c0-0.7,0.1-1.4,0.1-2.1h-3.5l0.8,10L12.8,13
			L4.4,7.2L2.9,9.8l1.9,1c2.7,1.4,5.2,2.7,7.7,4.1c1,0.6,1.8,1.7,1.9,2.9c0.1,1.3,0,2.6-0.1,3.9c-0.1,0.6-0.1,1.2-0.2,1.9L14,25.3
			l-9.6-6.6l-1.6,2.7l1.4,0.7c1.6,0.9,3.3,1.6,5,2.3c3.9,1.5,5.4,4.1,4.8,8.8c-0.3,3-0.3,6-0.2,9C13.9,43.3,14,44.4,14,45.4L14,45.4
			z"/>
	</g>
</g>
</svg>
