<?xml version="1.0" encoding="utf-8"?>
<!-- Generator: Adobe Illustrator 23.0.2, SVG Export Plug-In . SVG Version: 6.00 Build 0)  -->
<svg version="1.1" id="Layer_1" xmlns="http://www.w3.org/2000/svg" xmlns:xlink="http://www.w3.org/1999/xlink" x="0px" y="0px"
	 viewBox="0 0 29.4 52.1" style="enable-background:new 0 0 29.4 52.1;" xml:space="preserve">
<style type="text/css">
	.st0{fill:#231F20;}
</style>
<title>Asset 44</title>
<g>
	<g id="Layer_1-2">
		<path class="st0" d="M0,52.1V0l14.4,11.8l9.9-8.8L29.4,9l-15,12.1l-8-7v24.8L7,38.4c1.8-1.5,3.4-2.9,5-4.5c2-2,3.6-1.2,5-0.1
			c2.7,2.2,5.3,4.3,8.2,6.4l3.4,2.6l0.8,0.6l-5,5.9l-0.8-0.7l-2.5-2.3c-2-1.8-3.8-3.6-5.7-5.4c-0.9-0.8-1.1-0.9-2.1-0.1
			c-2.6,2.3-5.3,4.5-8.1,6.8c-1.2,1-2.4,1.9-3.6,3L0,52.1z M2,4.2v43.6l2-1.6c2.8-2.3,5.5-4.5,8.1-6.8c1.7-1.5,3.2-1.4,4.8,0.2
			c1.8,1.8,3.7,3.5,5.6,5.3l1.7,1.6l2.3-2.7l-2.6-2c-2.9-2.2-5.5-4.3-8.2-6.5c-1.1-0.9-1.4-0.9-2.3,0c-1.6,1.6-3.3,3-5.1,4.5
			c-0.8,0.6-1.5,1.3-2.3,2l-1.7,1.4V9.6l10.1,8.8l12.1-9.7l-2.5-2.8l-9.6,8.6L2,4.2z"/>
	</g>
</g>
</svg>
