<?xml version="1.0" encoding="utf-8"?>
<!-- Generator: Adobe Illustrator 23.0.2, SVG Export Plug-In . SVG Version: 6.00 Build 0)  -->
<svg version="1.1" id="Layer_1" xmlns="http://www.w3.org/2000/svg" xmlns:xlink="http://www.w3.org/1999/xlink" x="0px" y="0px"
	 viewBox="0 0 40.6 40.6" style="enable-background:new 0 0 40.6 40.6;" xml:space="preserve">
<style type="text/css">
	.st0{fill:#231F20;}
</style>
<title>Asset 75</title>
<g>
	<g id="Layer_1-2">
		<path class="st0" d="M20.4,40.6h-0.1C9.1,40.5,0,31.5,0,20.3C0,14.9,2.1,9.7,5.9,5.9C9.8,2.1,15,0,20.4,0l0,0
			c11.2,0.1,20.2,9.2,20.2,20.4c0,5.4-2.2,10.6-6.1,14.4C30.8,38.5,25.7,40.6,20.4,40.6z M20.4,2C10.3,2,2,10.1,2,20.2
			c0,10.1,8.1,18.3,18.2,18.4h0.1c4.8,0,9.4-1.9,12.8-5.3c7.2-7.1,7.3-18.7,0.2-25.9C29.9,4,25.3,2,20.4,2L20.4,2z M22.5,35.7
			l-1-14.1l13.6,0.8v0.9c0.1,5.4-5,10.7-11.5,12.2L22.5,35.7z M23.7,23.7l0.6,9.5c4.6-1.5,8.3-5.2,8.8-9L23.7,23.7z M18.2,35.4
			l-1-0.1C11,34.4,6.2,29.6,5.3,23.5l-0.1-1l14-0.9L18.2,35.4z M7.4,24.3c1.1,4.3,4.5,7.7,8.9,8.9l0.7-9.5L7.4,24.3z M21.5,19l1-14
			l1.1,0.2c6.1,1,10.9,5.8,11.8,11.9l0.1,1.1L21.5,19z M24.4,7.4l-0.7,9.5l9.5-0.6C32.1,11.9,28.7,8.5,24.4,7.4L24.4,7.4z
			 M19.1,18.9l-14-0.8l0.1-1.1C6.2,10.9,11,6.1,17.1,5.2l1-0.1L19.1,18.9z M7.4,16.3l9.5,0.5l-0.6-9.4C12,8.5,8.6,11.9,7.4,16.3z"/>
	</g>
</g>
</svg>
