<?xml version="1.0" encoding="utf-8"?>
<!-- Generator: Adobe Illustrator 23.0.2, SVG Export Plug-In . SVG Version: 6.00 Build 0)  -->
<svg version="1.1" id="Layer_1" xmlns="http://www.w3.org/2000/svg" xmlns:xlink="http://www.w3.org/1999/xlink" x="0px" y="0px"
	 viewBox="0 0 28.9 45.7" style="enable-background:new 0 0 28.9 45.7;" xml:space="preserve">
<style type="text/css">
	.st0{fill:#231F20;}
</style>
<title>Asset 13</title>
<g>
	<g id="Layer_1-2">
		<path class="st0" d="M18.5,45.7h-7.9v-1c0.1-1.5,0.1-3,0.2-4.5c0.1-3.2,0.3-6.6,0.5-9.9v-0.2c0.4-6.2,0.4-6.2-4.8-9.5
			c-1.1-0.7-2.3-1.5-3.6-2.2l-1.9-1.2L0,16.6l5-6.8l6.7,6L10.8,0h7.8v1c-0.1,1.6-0.1,3.1-0.2,4.7c-0.1,3.5-0.2,7.2-0.5,10.8
			c-0.3,3.4,0.8,5.5,3.8,7c1.5,0.8,2.9,1.7,4.3,2.6l2,1.3l0.9,0.6l-5.1,6.7l-5.4-4.9V45.7z M12.7,43.7h3.8V25.2l7.1,6.5l2.4-3.2
			c-0.4-0.2-0.7-0.5-1.1-0.7c-1.3-0.9-2.7-1.7-4.1-2.5c-3.8-1.9-5.3-4.7-4.9-9c0.3-3.5,0.4-7,0.5-10.6c0-1.2,0.1-2.5,0.1-3.7h-3.6
			l0.8,16l-1.9,0.7l-6.5-5.8L2.9,16l1,0.6c1.3,0.8,2.5,1.5,3.7,2.2c6,3.8,6.2,4.3,5.7,11.3v0.2c-0.2,3.3-0.3,6.6-0.5,9.8L12.7,43.7z
			"/>
	</g>
</g>
</svg>
