<?xml version="1.0" encoding="utf-8"?>
<!-- Generator: Adobe Illustrator 23.0.2, SVG Export Plug-In . SVG Version: 6.00 Build 0)  -->
<svg version="1.1" id="Layer_1" xmlns="http://www.w3.org/2000/svg" xmlns:xlink="http://www.w3.org/1999/xlink" x="0px" y="0px"
	 viewBox="0 0 31.7 45.8" style="enable-background:new 0 0 31.7 45.8;" xml:space="preserve">
<style type="text/css">
	.st0{fill:#231F20;}
</style>
<title>Asset 71</title>
<g>
	<g id="Layer_1-2">
		<path class="st0" d="M19.4,45.8h-7.1L12.2,45c-0.2-1.7-0.1-3.4,0.1-5.1c0.2-1.8,0.2-3.5,0-5.3L6.1,45.4L0,41.6l8-11.8l-6.9-6.6
			l7-7.5l-8-11.3L6,0.5l6,10.9c1.1-1.9,0.9-3.8,0.6-6c-0.3-1.5-0.4-3.1-0.2-4.6L12.4,0h6.8l0.2,0.8c0.2,1.6,0.2,3.1-0.1,4.7
			c-0.3,2.1-0.6,4,0.5,5.9l6-10.8l5.9,3.6l-8,11.4l7,7.4l-6.9,6.7l8,11.7l-6,3.9l-6.2-10.9c-0.3,1.7-0.3,3.4,0,5.1
			c0.3,1.8,0.3,3.5,0.1,5.3L19.4,45.8z M14.1,43.8h3.5c0.1-1.3,0-2.6-0.2-3.9c-0.2-2.4-0.5-4.8,0.6-7.3l0.2-0.5l2-0.3l6.1,10.7
			l2.5-1.7l-7.8-11.4l6.7-6.5L21,15.8l7.8-11l-2.3-1.5l-6.4,11.5l-0.9-1c-2.8-2.9-2.3-6-1.9-8.7c0.2-1.1,0.3-2.1,0.3-3.2h-3.3
			c0,1,0.1,2.1,0.3,3.1c0.4,2.7,0.8,5.8-1.9,8.8l-0.9,1L5.2,3.4L3,4.8l7.7,11L3.9,23l6.7,6.4L2.8,41l2.5,1.6l6.2-10.8l2.1,0.4
			l0.2,0.6c0.6,2.4,0.8,4.8,0.4,7.3C14.1,41.3,14.1,42.6,14.1,43.8z M11.1,28.1l-5.5-4.8l5.8-5.3l0.7,0.8c3.2,3.9,3.2,4.6-0.3,8.6
			L11.1,28.1z M8.6,23.2l2.3,2c0.9-1.1,1.5-1.8,1.5-2.3s-0.4-1.1-1.2-2.1L8.6,23.2z M20.5,27.6L19.8,27c-3.3-3.2-3.3-4.1-0.1-8.3
			l0.7-0.9l5.5,5.3L20.5,27.6z M20.6,20.8c-1.6,2.1-1.6,2.5,0,4.1l2.3-1.9L20.6,20.8z"/>
	</g>
</g>
</svg>
