<?xml version="1.0" encoding="utf-8"?>
<!-- Generator: Adobe Illustrator 23.0.2, SVG Export Plug-In . SVG Version: 6.00 Build 0)  -->
<svg version="1.1" id="Layer_1" xmlns="http://www.w3.org/2000/svg" xmlns:xlink="http://www.w3.org/1999/xlink" x="0px" y="0px"
	 viewBox="0 0 42.1 42.9" style="enable-background:new 0 0 42.1 42.9;" xml:space="preserve">
<style type="text/css">
	.st0{fill:#231F20;}
</style>
<title>Asset 60</title>
<g>
	<g id="Layer_1-2">
		<path class="st0" d="M31,42.9L22,32l-9.9,10.5L0,31.7l5.4-6.1l6.6,7.9l4.8-5.3l-12-10.8L20.7,0l15.5,16.9L25.6,28.2l5.4,5l5.5-7.1
			l5.6,4.9L31,42.9z M22.1,29l9,10.9l8.2-8.7l-2.4-2.1l-5.6,7.2l-8.4-7.9L33.4,17L20.7,3l-13,14.4l12,10.8l-7.7,8.4l-6.6-7.9
			l-2.6,2.9l9.2,8.2L22.1,29z M21.1,26.5l-9-9.8L21,8.3l8.6,9L21.1,26.5z M14.9,16.9l6.2,6.7l5.8-6.3L21,11.1L14.9,16.9z"/>
	</g>
</g>
</svg>
