<?xml version="1.0" encoding="utf-8"?>
<!-- Generator: Adobe Illustrator 23.0.2, SVG Export Plug-In . SVG Version: 6.00 Build 0)  -->
<svg version="1.1" id="Layer_1" xmlns="http://www.w3.org/2000/svg" xmlns:xlink="http://www.w3.org/1999/xlink" x="0px" y="0px"
	 viewBox="0 0 28.5 43.7" style="enable-background:new 0 0 28.5 43.7;" xml:space="preserve">
<title>Asset 92</title>
<g>
	<g id="Layer_1-2">
		<path d="M0,9.8l3.4-4.2l11.4,10.2l0.9-0.4C15.4,10.3,15,5.2,14.7,0h6c-0.2,2.3-0.5,4.4-0.6,6.6c-0.2,3.7-0.3,7.3-0.3,11
			c0.1,1,0.6,2,1.4,2.7c2.3,1.8,4.7,3.4,7.3,5.2c-1.4,1.7-2.6,3.2-4,4.9l-4-3.7v17.1h-5.8c0-1.2,0-2.5,0-3.7
			c0.2-5.3,0.5-10.6,0.8-15.9c0.2-1.5-0.5-2.9-1.7-3.7C9.2,17,4.8,13.5,0,9.8z"/>
	</g>
</g>
</svg>
