<?xml version="1.0" encoding="utf-8"?>
<!-- Generator: Adobe Illustrator 23.0.2, SVG Export Plug-In . SVG Version: 6.00 Build 0)  -->
<svg version="1.1" id="Layer_1" xmlns="http://www.w3.org/2000/svg" xmlns:xlink="http://www.w3.org/1999/xlink" x="0px" y="0px"
	 viewBox="0 0 23.9 48.4" style="enable-background:new 0 0 23.9 48.4;" xml:space="preserve">
<style type="text/css">
	.st0{fill:#231F20;}
</style>
<title>Asset 19</title>
<g>
	<g id="Layer_1-2">
		<path class="st0" d="M23.9,48.4h-7.1l0-1c0-1.2,0.1-2.4,0.2-3.5c0.2-3,0.3-5.9,0.3-8.8c-0.1-1.1-0.5-2.2-1.2-3
			c-3.7-3.7-7.3-7.2-11.2-11l-4-3.9L0,16.3L21.8,0l2.1,0.5V48.4z M18.9,46.4h3v-44L3.1,16.5l3.2,3c3.9,3.8,7.6,7.3,11.3,11
			c1.1,1.2,1.8,2.8,1.8,4.5c0,3-0.1,5.8-0.3,8.9C19,44.7,18.9,45.5,18.9,46.4L18.9,46.4z M19.4,27.1l-12-10.4l11.9-9.7L19.4,27.1z
			 M10.6,16.8l6.8,6V11.2L10.6,16.8z"/>
	</g>
</g>
</svg>
