<?xml version="1.0" encoding="utf-8"?>
<!-- Generator: Adobe Illustrator 23.0.2, SVG Export Plug-In . SVG Version: 6.00 Build 0)  -->
<svg version="1.1" id="Layer_1" xmlns="http://www.w3.org/2000/svg" xmlns:xlink="http://www.w3.org/1999/xlink" x="0px" y="0px"
	 viewBox="0 0 27 47.9" style="enable-background:new 0 0 27 47.9;" xml:space="preserve">
<title>Asset 119</title>
<g>
	<g id="Layer_1-2">
		<path d="M13.4,17.6c-3.1-2.6-5.9-5.1-9-7.9V39c2.5-2.2,5-4.2,7.3-6.5c1.4-1.3,2.3-1.2,3.6,0c3.7,3.1,7.6,6,11.6,9.1l-3.7,4.3
			c-2.8-2.6-5.5-5.1-8.1-7.6c-1.2-1.2-2.1-1.3-3.4-0.1C8.1,41.3,4.3,44.3,0,47.9V0l13.4,11l9.7-8.7c1.3,1.5,2.4,2.8,3.8,4.4
			L13.4,17.6z"/>
	</g>
</g>
</svg>
