<?xml version="1.0" encoding="utf-8"?>
<!-- Generator: Adobe Illustrator 23.0.2, SVG Export Plug-In . SVG Version: 6.00 Build 0)  -->
<svg version="1.1" id="Layer_1" xmlns="http://www.w3.org/2000/svg" xmlns:xlink="http://www.w3.org/1999/xlink" x="0px" y="0px"
	 viewBox="0 0 29.9 42.6" style="enable-background:new 0 0 29.9 42.6;" xml:space="preserve">
<title>Asset 116</title>
<g>
	<g id="Layer_1-2">
		<path d="M0.3,3L5,0l9.9,17.5c3.5-6.2,6.6-11.6,9.9-17.5l4.8,3c-3.7,5.6-7.2,11-10.8,16.3c-0.9,1.1-0.9,2.7,0,3.7
			c3.7,5.3,7.3,10.7,11.1,16.3l-5.3,3.2c-3.2-5.6-6.3-11.1-9.7-17l-9.7,17L0,39.2c3.8-5.6,7.4-11,11.1-16.2c0.9-1,1-2.6,0.1-3.6
			C7.5,14,4,8.6,0.3,3z"/>
	</g>
</g>
</svg>
