<?xml version="1.0" encoding="utf-8"?>
<!-- Generator: Adobe Illustrator 23.0.2, SVG Export Plug-In . SVG Version: 6.00 Build 0)  -->
<svg version="1.1" id="Layer_1" xmlns="http://www.w3.org/2000/svg" xmlns:xlink="http://www.w3.org/1999/xlink" x="0px" y="0px"
	 viewBox="0 0 23.1 45.9" style="enable-background:new 0 0 23.1 45.9;" xml:space="preserve">
<style type="text/css">
	.st0{fill:#231F20;}
</style>
<title>Asset 9</title>
<g>
	<g id="Layer_1-2">
		<path class="st0" d="M8.4,45.9H0.1v-1c0.1-3.3,0.3-6.7,0.4-10c0.5-11,1-22.5-0.4-33.8L0,0h8.3l-1,14.5l10.9-12l4.9,5.4L18.8,12
			l-9.1,8.6c-1.7,1.5-2.5,3.8-2.2,6.1C7.9,30.9,8,35,8.2,39.4c0.1,1.8,0.1,3.6,0.2,5.5L8.4,45.9z M2.2,43.9h4.1
			c-0.1-1.5-0.1-3-0.2-4.4C6,35.1,5.9,31,5.6,26.8c-0.4-2.9,0.7-5.7,2.8-7.7c3.1-2.9,6.1-5.8,9.1-8.6l2.9-2.8l-2.1-2.3l-11,12.1
			l-2.1-0.9L6.2,2H2.3c1.3,11.1,0.8,22.3,0.3,33C2.4,38,2.3,41,2.2,43.9z"/>
	</g>
</g>
</svg>
