<?xml version="1.0" encoding="utf-8"?>
<!-- Generator: Adobe Illustrator 23.0.2, SVG Export Plug-In . SVG Version: 6.00 Build 0)  -->
<svg version="1.1" id="Layer_1" xmlns="http://www.w3.org/2000/svg" xmlns:xlink="http://www.w3.org/1999/xlink" x="0px" y="0px"
	 viewBox="0 0 22.6 42.3" style="enable-background:new 0 0 22.6 42.3;" xml:space="preserve">
<title>Asset 108</title>
<g>
	<g id="Layer_1-2">
		<path d="M22.4,42.3c-1.6,0-3,0-4.5,0c-0.3,0-0.6,0-0.8-0.1c0-5,0-9.9,0-14.7c0-3.1,0.1-6.3,0.3-9.5c0.2-1.5-0.6-3-2-3.7
			c-3.3-2-6.4-4.1-9.9-6.4v34.2H0C0.3,28.2,0.5,14.3,0.8,0c1,0.6,1.8,1,2.5,1.4C8.9,5,14.5,8.7,20,12.4c0.8,0.5,1.4,1.3,1.6,2.3
			c0.4,8.9,0.7,17.8,1,26.6C22.6,41.6,22.5,42,22.4,42.3z"/>
	</g>
</g>
</svg>
