<?xml version="1.0" encoding="utf-8"?>
<!-- Generator: Adobe Illustrator 23.0.2, SVG Export Plug-In . SVG Version: 6.00 Build 0)  -->
<svg version="1.1" id="Layer_1" xmlns="http://www.w3.org/2000/svg" xmlns:xlink="http://www.w3.org/1999/xlink" x="0px" y="0px"
	 viewBox="0 0 37 45.2" style="enable-background:new 0 0 37 45.2;" xml:space="preserve">
<title>Asset 106</title>
<g>
	<g id="Layer_1-2">
		<path d="M16,0h5.6c-0.2,2.3-0.5,4.4-0.5,6.6C21,12.5,20.9,18.4,21,24.3c0.1,1.4,0.7,2.7,1.6,3.7c4.6,4.4,9.4,8.7,14.4,13.2
			l-3.5,3.7L21.8,32.6l-0.7,0.2c0.2,4.1,0.4,8.1,0.6,12.3h-6v-13L3.9,45L0,40.9c4.9-4.5,9.6-9,14.5-13.4c1.3-1.1,2-2.8,1.9-4.5
			C16.2,15.4,16.1,7.9,16,0z"/>
	</g>
</g>
</svg>
