<?xml version="1.0" encoding="utf-8"?>
<!-- Generator: Adobe Illustrator 23.0.2, SVG Export Plug-In . SVG Version: 6.00 Build 0)  -->
<svg version="1.1" id="Layer_1" xmlns="http://www.w3.org/2000/svg" xmlns:xlink="http://www.w3.org/1999/xlink" x="0px" y="0px"
	 viewBox="0 0 34.9 47" style="enable-background:new 0 0 34.9 47;" xml:space="preserve">
<title>Asset 103</title>
<g>
	<g id="Layer_1-2">
		<path d="M15.4,16.7c-0.3-5.5-0.6-11-0.9-16.7h5.8c-0.3,5.6-0.6,11-0.9,16.5L31.2,6.1l3.7,3.4l-3.1,2.8c-2.2,1.9-4.4,3.8-6.5,5.8
			c-5.8,5.2-5.8,5.2-5.4,13c0.3,5,0.5,10.1,0.7,15.1c0,0.3-0.1,0.6-0.2,0.9h-5.8c0-2.2,0-4.3,0-6.4c0.2-5.4,0.4-10.8,0.5-16.1
			c-0.1-1.1-0.5-2.1-1.3-2.8C9.3,17.5,4.7,13.4,0,9.1l3.7-3.5l10.9,11.6L15.4,16.7z"/>
	</g>
</g>
</svg>
