<?xml version="1.0" encoding="utf-8"?>
<!-- Generator: Adobe Illustrator 23.0.2, SVG Export Plug-In . SVG Version: 6.00 Build 0)  -->
<svg version="1.1" id="Layer_1" xmlns="http://www.w3.org/2000/svg" xmlns:xlink="http://www.w3.org/1999/xlink" x="0px" y="0px"
	 viewBox="0 0 22.8 46.8" style="enable-background:new 0 0 22.8 46.8;" xml:space="preserve">
<title>Asset 101</title>
<g>
	<g id="Layer_1-2">
		<path d="M19.4,16.6l3.3,4.5l-9.5,6.2l-9-7.1C4.7,29.5,5,38,5.3,46.8H0V0c2.3,1.8,4.1,3.1,5.8,4.4C6,4.6,6.2,4.8,6.4,4.9
			c2,1.6,4,4.2,6.1,4.4c1.9,0.1,4-2.4,6.3-4l3.6,4.3L13.3,16L5.1,9.2c-0.6,3.5-0.5,6,2.3,8.3c5.6,4.6,5.5,4.8,10.8,0.1
			C18.5,17.3,18.9,17,19.4,16.6z"/>
	</g>
</g>
</svg>
