<?xml version="1.0" encoding="utf-8"?>
<!-- Generator: Adobe Illustrator 23.0.2, SVG Export Plug-In . SVG Version: 6.00 Build 0)  -->
<svg version="1.1" id="Layer_1" xmlns="http://www.w3.org/2000/svg" xmlns:xlink="http://www.w3.org/1999/xlink" x="0px" y="0px"
	 viewBox="0 0 21.7 42.6" style="enable-background:new 0 0 21.7 42.6;" xml:space="preserve">
<title>Asset 121</title>
<g>
	<g id="Layer_1-2">
		<path d="M4.3,8.2c0,5.6-0.1,10.5,0.1,15.4c0,0.7,0.8,1.4,1.4,1.9c4.8,4.3,7.4,10.6,7.1,17H8.3c0.1-4.6,0.3-9.2-4.1-12.6
			c0.3,4.2,0.6,8.3,0.9,12.6H0V0l11.1,6.9c3,1.9,6.1,3.8,9.1,5.7c0.6,0.4,1.4,1.2,1.4,1.9c0.1,9.3,0.1,18.6,0.1,28H16
			c0.2-2.4,0.5-4.7,0.5-7c0.1-5.7,0.1-11.5,0-17.2c-0.1-1.2-0.7-2.3-1.6-3.1C11.7,13,8.3,10.8,4.3,8.2z"/>
	</g>
</g>
</svg>
