<?xml version="1.0" encoding="utf-8"?>
<!-- Generator: Adobe Illustrator 23.0.2, SVG Export Plug-In . SVG Version: 6.00 Build 0)  -->
<svg version="1.1" id="Layer_1" xmlns="http://www.w3.org/2000/svg" xmlns:xlink="http://www.w3.org/1999/xlink" x="0px" y="0px"
	 viewBox="0 0 14.9 46.3" style="enable-background:new 0 0 14.9 46.3;" xml:space="preserve">
<style type="text/css">
	.st0{fill:#231F20;}
</style>
<title>Asset 6</title>
<g>
	<g id="Layer_1-2">
		<path class="st0" d="M10.6,46.3H2.2l0.3-5c0.2-2.8,0.3-5.7,0.5-8.5v-0.1c0.3-5,0.3-5-2.7-8.8L0,23.6l0.1-0.4
			c0-0.4,0.2-0.9,0.5-1.1c2.5-1.8,2.9-4.3,2.6-7.5S2.8,8.4,2.7,5.2C2.6,3.8,2.6,2.4,2.5,1L2.4,0h5.1c0.4,0,0.8,0,1.3,0.1l1.7,0.1
			l-0.1,1c-0.1,1.2-0.2,2.4-0.3,3.6C9.9,7.5,9.8,10,9.7,12.6c0,0.6,0,1.1-0.1,1.7c-0.2,3.3-0.4,6.1,3.5,7.9l1.8,0.9L13.1,24
			c-3.6,1.8-3.4,4.5-3.3,7.6l0.1,0.9c0.1,2.9,0.3,5.8,0.5,8.7L10.6,46.3z M4.3,44.3h4.2l-0.2-2.8c-0.2-3-0.3-5.9-0.5-8.8v-0.9
			c-0.2-2.9-0.4-6.2,2.9-8.6c-3.5-2.5-3.3-6-3.1-9c0-0.5,0.1-1.1,0.1-1.6c0.1-2.7,0.3-5.2,0.4-8C8.3,3.7,8.3,2.9,8.4,2L7.5,2H4.6
			c0,1.1,0.1,2.1,0.2,3.2c0.1,3.2,0.3,6.2,0.5,9.2s0,6.4-2.9,8.8c2.9,3.8,3,4.3,2.6,9.7V33c-0.2,2.8-0.3,5.6-0.5,8.4L4.3,44.3z
			 M1.8,23.6L1.8,23.6z"/>
	</g>
</g>
</svg>
