<?xml version="1.0" encoding="utf-8"?>
<!-- Generator: Adobe Illustrator 23.0.2, SVG Export Plug-In . SVG Version: 6.00 Build 0)  -->
<svg version="1.1" id="Layer_1" xmlns="http://www.w3.org/2000/svg" xmlns:xlink="http://www.w3.org/1999/xlink" x="0px" y="0px"
	 viewBox="0 0 24.6 41.6" style="enable-background:new 0 0 24.6 41.6;" xml:space="preserve">
<title>Asset 138</title>
<g>
	<g id="Layer_1-2">
		<path d="M5.3,41.6H0C0.5,27.7,1.7,14,0,0h5.5C5.4,2.2,5.1,4.4,5.1,6.6c0,1.1,0.4,2.1,1.2,2.8c4.4,2.6,8.9,4.9,13.3,7.4l0.8-0.6
			C20.1,10.8,19.9,5.5,19.6,0h4.9v41.5h-5.2c0.1-2.2,0.3-4.3,0.4-6.5c0-0.8-0.1-1.9-0.6-2.3c-4.4-2.8-8.9-5.6-13.8-8.5V41.6z
			 M19.5,26.9c1-2.6,0.4-4.1-1.6-5.2c-2.7-1.5-5.2-3.2-7.9-4.8c-1.6-0.9-3.2-1.6-5-2.5c-0.6,3.9-0.6,4.4,2.3,6.1
			C11.3,22.7,15.4,24.7,19.5,26.9z"/>
	</g>
</g>
</svg>
