<?xml version="1.0" encoding="utf-8"?>
<!-- Generator: Adobe Illustrator 23.0.2, SVG Export Plug-In . SVG Version: 6.00 Build 0)  -->
<svg version="1.1" id="Layer_1" xmlns="http://www.w3.org/2000/svg" xmlns:xlink="http://www.w3.org/1999/xlink" x="0px" y="0px"
	 viewBox="0 0 33.9 32.8" style="enable-background:new 0 0 33.9 32.8;" xml:space="preserve">
<title>Asset 136</title>
<g>
	<g id="Layer_1-2">
		<path d="M33.9,1.1v31.7c-1.3-0.9-2.3-1.6-3.2-2.4c-4.1-3.1-8.3-6.1-12.3-9.3c-1.4-1.1-2.3-1.1-3.7,0c-4,3.3-8.1,6.5-12.2,9.7
			c-0.6,0.5-1.3,1-2.4,1.8V0l17.3,14L33.9,1.1z M29.5,9.7l-9,7l9,7.1L29.5,9.7z M13.2,17.3l-8-5.8c-0.3,4.4-0.5,8.2-0.8,12.6
			L13.2,17.3z"/>
	</g>
</g>
</svg>
