<?xml version="1.0" encoding="utf-8"?>
<!-- Generator: Adobe Illustrator 23.0.2, SVG Export Plug-In . SVG Version: 6.00 Build 0)  -->
<svg version="1.1" id="Layer_1" xmlns="http://www.w3.org/2000/svg" xmlns:xlink="http://www.w3.org/1999/xlink" x="0px" y="0px"
	 viewBox="0 0 48.8 43" style="enable-background:new 0 0 48.8 43;" xml:space="preserve">
<title>Asset 132</title>
<g>
	<g id="Layer_1-2">
		<path d="M13,32.6L4.8,42.8L0,38.7l12.7-13.3l10.2,11l0.9-0.5c0-0.9,0-1.7,0-2.6c-0.3-9.6-0.6-19.1-0.9-28.7c0-1.6,0.1-2.8,2-3.5
			c1.7-0.7,2.8-0.4,4,0.9c2.4,2.7,4.9,5.2,7.6,8.1l7.2-10l5.1,3.9L37.2,18.3l-9-9.7C28.1,9.8,28,10.4,28,11
			c0.1,9.6,0.2,19.1,0.3,28.7c0.2,1.3-0.6,2.5-1.8,2.9C25.4,43.3,24,43,23.2,42C19.9,38.9,16.5,35.9,13,32.6z"/>
	</g>
</g>
</svg>
