<?xml version="1.0" encoding="utf-8"?>
<!-- Generator: Adobe Illustrator 23.0.2, SVG Export Plug-In . SVG Version: 6.00 Build 0)  -->
<svg version="1.1" id="Layer_1" xmlns="http://www.w3.org/2000/svg" xmlns:xlink="http://www.w3.org/1999/xlink" x="0px" y="0px"
	 viewBox="0 0 9 46" style="enable-background:new 0 0 9 46;" xml:space="preserve">
<style type="text/css">
	.st0{fill:#231F20;}
</style>
<title>Asset 5</title>
<g>
	<g id="Layer_1-2">
		<path class="st0" d="M9,46H0.1v-1c0.2-3,0.3-6,0.5-8.9C1.2,24.6,1.8,12.8,0.2,1.1L0,0h8.6v1c0,2.3-0.1,4.5-0.2,6.8
			C8.2,12.8,8.1,18,8.1,23s0.3,9.9,0.5,15.1c0.1,2.3,0.2,4.5,0.3,6.8L9,46z M2.2,44h4.7l-0.3-5.8C6.4,33,6.2,28.1,6.1,23
			S6.2,12.8,6.3,7.7C6.4,5.8,6.5,3.9,6.5,2H2.3c1.5,11.5,0.9,23,0.3,34.2C2.5,38.8,2.3,41.4,2.2,44z"/>
	</g>
</g>
</svg>
