<?xml version="1.0" encoding="utf-8"?>
<!-- Generator: Adobe Illustrator 23.0.2, SVG Export Plug-In . SVG Version: 6.00 Build 0)  -->
<svg version="1.1" id="Layer_1" xmlns="http://www.w3.org/2000/svg" xmlns:xlink="http://www.w3.org/1999/xlink" x="0px" y="0px"
	 viewBox="0 0 29.4 42.2" style="enable-background:new 0 0 29.4 42.2;" xml:space="preserve">
<title>Asset 130</title>
<g>
	<g id="Layer_1-2">
		<path d="M27.8,21.2c-1.6,1.7-2.9,3.3-4.4,4.7s-1.5,2.8-0.1,4.5c2.2,2.7,4,5.7,6.1,8.8l-4.8,3l-9.9-17.3L4.8,42.2l-4.8-3
			c2.3-3.4,4.5-6.5,6.7-9.6c0.8-0.8,0.8-2.1,0-2.9c-0.1-0.1-0.1-0.1-0.2-0.2c-1.7-1.7-3.2-3.5-4.8-5.3L8.1,14
			c-2.6-3.7-5.2-7.3-8-11.1L4.6,0l10.1,17.6c3.6-6.3,6.8-11.8,10.1-17.6l4.5,2.8c-2.2,3-4.1,6-6.4,8.8c-1.5,1.9-1.3,3.2,0.4,4.8
			S26.3,19.5,27.8,21.2z M9.8,24.6c3-3.7,3-4.5-0.1-6.7l-3.7,3.3L9.8,24.6z M19.8,24.6l3.8-3.4l-4-3.5C16.8,20.9,16.8,21,19.8,24.6
			L19.8,24.6z"/>
	</g>
</g>
</svg>
