<?xml version="1.0" encoding="utf-8"?>
<!-- Generator: Adobe Illustrator 23.0.2, SVG Export Plug-In . SVG Version: 6.00 Build 0)  -->
<svg version="1.1" id="Layer_1" xmlns="http://www.w3.org/2000/svg" xmlns:xlink="http://www.w3.org/1999/xlink" x="0px" y="0px"
	 viewBox="0 0 23.3 47.9" style="enable-background:new 0 0 23.3 47.9;" xml:space="preserve">
<style type="text/css">
	.st0{fill:#231F20;}
</style>
<title>Asset 18</title>
<g>
	<g id="Layer_1-2">
		<path class="st0" d="M7.1,47.9H0V0h7.3L7.2,1.1C7.1,1.9,7.1,2.6,7,3.4C6.9,5.1,6.7,6.8,6.5,8.5c-0.3,1.3,0.2,2.6,1.3,3.3
			c2.9,2.4,5.7,5,8.5,7.4l3.4,3l1.7,1.5l2,1.7l-7.4,5.3l-0.8,0.6c-0.6,0.4-1.2,0.9-1.8,1.2C7.4,36.2,5.6,40,7.2,45.3
			c0.1,0.4,0.1,0.9,0,1.3c0,0.1,0,0.3,0,0.5L7.1,47.9z M2,45.9h3.3v-0.1c-2.5-8.1,2.8-12.4,7-14.9c0.5-0.3,1.1-0.7,1.6-1.1l0.8-0.6
			l5.4-3.8l0,0l-1.7-1.5l-3.4-3c-2.8-2.5-5.6-5-8.5-7.4c-1.6-1.2-2.4-3.2-2-5.2C4.7,6.6,4.9,5,5,3.2C5,2.8,5.1,2.4,5.1,2H2V45.9z
			 M4.7,33.8V16.3l12.2,9L4.7,33.8z M6.7,20.2V30l6.8-4.7L6.7,20.2z"/>
	</g>
</g>
</svg>
