<?xml version="1.0" encoding="utf-8"?>
<!-- Generator: Adobe Illustrator 23.0.2, SVG Export Plug-In . SVG Version: 6.00 Build 0)  -->
<svg version="1.1" id="Layer_1" xmlns="http://www.w3.org/2000/svg" xmlns:xlink="http://www.w3.org/1999/xlink" x="0px" y="0px"
	 viewBox="0 0 35.8 51.7" style="enable-background:new 0 0 35.8 51.7;" xml:space="preserve">
<style type="text/css">
	.st0{fill:#231F20;}
</style>
<title>Asset 38</title>
<g>
	<g id="Layer_1-2">
		<path class="st0" d="M21.5,51.7h-9.1v-1c0.1-2.5,0.2-4.9,0.4-7.4c0.5-9.7,1-19.7-0.1-29.7L5,22.8L0,18l1.3-1.5l0.3,0.2L16.6,0
			l19.2,16.9L30.1,23l-9.4-10c-0.9,12.3-0.1,23.8,0.6,36.1L21.5,51.7z M14.5,49.7h4.9v-0.5c-0.8-13-1.6-25.4-0.5-38.6l0.2-2.2
			l11,11.7l2.8-3L16.7,2.8L3,18.1l1.8,1.7l9.3-11.1l0.3,2.2c1.5,11,0.9,21.9,0.4,32.4C14.7,45.5,14.6,47.6,14.5,49.7z"/>
	</g>
</g>
</svg>
