<?xml version="1.0" encoding="utf-8"?>
<!-- Generator: Adobe Illustrator 23.0.2, SVG Export Plug-In . SVG Version: 6.00 Build 0)  -->
<svg version="1.1" id="Layer_1" xmlns="http://www.w3.org/2000/svg" xmlns:xlink="http://www.w3.org/1999/xlink" x="0px" y="0px"
	 viewBox="0 0 24.5 46.8" style="enable-background:new 0 0 24.5 46.8;" xml:space="preserve">
<style type="text/css">
	.st0{fill:#231F20;}
</style>
<title>Asset 37</title>
<g>
	<g id="Layer_1-2">
		<path class="st0" d="M7.6,46.8H0L0.9,0l5.8,3.7C12,7.3,17.1,10.6,22.3,14c0.8,0.6,1.3,1.5,1.4,2.4c0.3,8,0.5,15.9,0.7,24.1
			l0.2,6.3h-8.1l0.1-1.1c0-0.5,0.1-1,0.1-1.5c0.1-1,0.1-2,0.2-3l0.1-2.9c0.2-6.2,0.4-12.6,0.5-18.9c0-0.6-0.3-1.2-0.7-1.7
			c-2.5-1.8-5.1-3.4-7.8-5.1l-1.4-0.9V46.8z M2,44.8h3.6V8.1l1.6,1L10,11c2.7,1.7,5.3,3.4,7.9,5.1c1,0.8,1.6,2.1,1.5,3.4
			c-0.1,6.3-0.3,12.7-0.5,19l-0.1,2.8c0,1-0.1,2.1-0.2,3.1v0.4h3.9l-0.1-4.2c-0.2-8.3-0.4-16.1-0.7-24.1c-0.1-0.3-0.2-0.6-0.5-0.8
			C16,12.2,10.9,8.9,5.5,5.4L2.8,3.6L2,44.8z"/>
	</g>
</g>
</svg>
