<?xml version="1.0" encoding="utf-8"?>
<!-- Generator: Adobe Illustrator 23.0.2, SVG Export Plug-In . SVG Version: 6.00 Build 0)  -->
<svg version="1.1" id="Layer_1" xmlns="http://www.w3.org/2000/svg" xmlns:xlink="http://www.w3.org/1999/xlink" x="0px" y="0px"
	 viewBox="0 0 24.7 45" style="enable-background:new 0 0 24.7 45;" xml:space="preserve">
<style type="text/css">
	.st0{fill:#231F20;}
</style>
<title>Asset 33</title>
<g>
	<g id="Layer_1-2">
		<path class="st0" d="M21,45h-2c-0.3,0-0.7,0-1-0.1l-0.8-0.2v-0.8v-4.5c0-3.5,0-6.8,0-10.2c0-3.5,0.1-6.5,0.3-9.5
			c0.2-1.2-0.5-2.3-1.5-2.7c-2.4-1.4-4.6-2.9-7-4.4l-1.4-0.9v33.3H0L0.9,0l1.5,0.8l0.9,0.5c0.6,0.3,1.1,0.6,1.6,0.9l2.3,1.5
			c4.8,3.1,9.7,6.3,14.4,9.5c1.1,0.7,1.8,1.8,2,3c0.4,7.4,0.6,15,0.9,22.3l0.1,4.3c0,0.3,0,0.6-0.1,0.8c0,0.1-0.1,0.3-0.1,0.5
			L24.2,45L21,45L21,45z M19.2,43h3.5c0,0,0,0,0-0.1l-0.1-4.3c-0.3-7.3-0.5-14.8-0.9-22.3c-0.2-0.6-0.6-1.1-1.2-1.5
			c-4.8-3.2-9.7-6.4-14.5-9.4L3.8,4c-0.3-0.2-0.6-0.4-1-0.6L2,42.9h3.6v-35l1.5,1l3,1.9c2.4,1.5,4.6,3,6.9,4.4
			c1.7,0.8,2.7,2.7,2.5,4.6c-0.2,3-0.3,5.9-0.3,9.4s0,6.8,0,10.2L19.2,43z"/>
	</g>
</g>
</svg>
