<?xml version="1.0" encoding="utf-8"?>
<!-- Generator: Adobe Illustrator 23.0.2, SVG Export Plug-In . SVG Version: 6.00 Build 0)  -->
<svg version="1.1" id="Layer_1" xmlns="http://www.w3.org/2000/svg" xmlns:xlink="http://www.w3.org/1999/xlink" x="0px" y="0px"
	 viewBox="0 0 39.9 47.4" style="enable-background:new 0 0 39.9 47.4;" xml:space="preserve">
<style type="text/css">
	.st0{fill:#231F20;}
</style>
<title>Asset 31</title>
<g>
	<g id="Layer_1-2">
		<path class="st0" d="M5.4,47.4L0,41.9l0.8-0.7l4-3.7c3.4-3.2,7-6.5,10.5-9.7c1.1-0.9,1.7-2.3,1.6-3.7c-0.1-5.5-0.2-10.9-0.3-16.7
			c0-2.1-0.1-4.2-0.1-6.3V0h7.7l-0.1,1.1c-0.1,0.7-0.1,1.4-0.2,2.2c-0.1,1.5-0.3,3-0.3,4.4c-0.1,5.8-0.3,11.7-0.1,17.6
			c0.1,1.1,0.6,2.2,1.4,3c3.4,3.3,6.9,6.4,10.5,9.7c1.3,1.2,2.5,2.3,3.8,3.5l0.8,0.7L35,47.3L23.7,35.5l0.5,11.7h-8.1V35.7L5.4,47.4
			z M18.2,45.2h4l-0.6-12.1l2-0.6L35,44.4l2-2.2l-3.1-2.8c-3.7-3.3-7.1-6.4-10.5-9.7c-1.2-1.2-1.9-2.7-2-4.4
			c-0.1-5.9,0-11.9,0.1-17.7c0-1.5,0.2-3,0.3-4.6c0-0.3,0.1-0.7,0.1-1h-3.5c0,1.8,0,3.6,0.1,5.3c0.1,5.7,0.2,11.1,0.3,16.7
			c0.1,2-0.7,3.9-2.3,5.2c-3.5,3.2-7,6.5-10.5,9.7l-3.3,3l2.5,2.5l12.8-13.9V45.2z"/>
	</g>
</g>
</svg>
