<?xml version="1.0" encoding="utf-8"?>
<!-- Generator: Adobe Illustrator 23.0.2, SVG Export Plug-In . SVG Version: 6.00 Build 0)  -->
<svg version="1.1" id="Layer_1" xmlns="http://www.w3.org/2000/svg" xmlns:xlink="http://www.w3.org/1999/xlink" x="0px" y="0px"
	 viewBox="0 0 33.8 44.7" style="enable-background:new 0 0 33.8 44.7;" xml:space="preserve">
<style type="text/css">
	.st0{fill:#231F20;}
</style>
<title>Asset 27</title>
<g>
	<g id="Layer_1-2">
		<path class="st0" d="M20.7,44.7h-8v-1c0-0.6,0-1.3,0-1.9c0-1.3,0-2.6,0-3.9c0.1-1.8,0.1-3.6,0.2-5.4c0.2-3.8,0.3-7.6,0.4-11.4
			c-0.2-0.7-0.7-1.4-1.3-1.8C5.9,15.5,2.2,10.4,0.6,3.9C0.5,3.3,0.4,2.7,0.3,2.1c0-0.3-0.1-0.6-0.1-0.9L0,0h7.9L7.8,1.1
			c-0.4,5.1,1.3,8.8,5.7,11.9L12.6,0h8l-0.9,12.4c3.2-2.8,6-6.1,6.3-11.4V0.1h7.6l0,1c-0.2,4.5-2.1,8.8-5.3,11.9
			c-2.1,2.2-4.4,4.3-6.9,6c-1.2,0.6-1.8,2-1.6,3.3c0.3,4.8,0.5,9.7,0.7,14.5l0.2,4.5c0,0.5,0,1,0,1.6V44.7z M14.8,42.7h4
			c0-0.5,0-0.9,0-1.4l-0.2-4.5c-0.2-4.7-0.4-9.6-0.7-14.4c-0.3-2,0.7-4,2.5-5.1c2.4-1.6,4.6-3.6,6.6-5.7c2.6-2.6,4.2-5.9,4.7-9.5H28
			c-0.7,6.1-4.4,9.9-8.1,12.8l-0.5,0.4l-1.9-0.8L18.5,2h-3.7l0.9,14.7l-1.6-1C8.2,12.2,5.6,7.9,5.7,2H2.3c0.1,0.5,0.2,1,0.3,1.4
			c1.4,6,4.8,10.7,10.5,14.2c1.2,0.8,2.1,2,2.3,3.5c0,3.8-0.2,7.7-0.4,11.5c-0.1,1.8-0.1,3.6-0.2,5.4c0,1.2,0,2.5,0,3.8
			C14.8,42.1,14.8,42.4,14.8,42.7z"/>
	</g>
</g>
</svg>
