<?xml version="1.0" encoding="utf-8"?>
<!-- Generator: Adobe Illustrator 23.0.2, SVG Export Plug-In . SVG Version: 6.00 Build 0)  -->
<svg version="1.1" id="Layer_1" xmlns="http://www.w3.org/2000/svg" xmlns:xlink="http://www.w3.org/1999/xlink" x="0px" y="0px"
	 viewBox="0 0 25.2 49.9" style="enable-background:new 0 0 25.2 49.9;" xml:space="preserve">
<style type="text/css">
	.st0{fill:#231F20;}
</style>
<title>Asset 26</title>
<g>
	<g id="Layer_1-2">
		<path class="st0" d="M7.3,49.9H0V0l2.7,2C4.5,3.4,6,4.6,7.4,5.7C7.5,5.8,7.6,5.9,7.8,6L8,6.2c0.7,0.5,1.3,1.1,1.9,1.7
			c1.3,1.2,2.5,2.4,3.7,2.5c0.9,0.1,2.2-1,3.5-2.1c0.7-0.6,1.4-1.2,2.2-1.7L20,6l4.9,5.8l-10.7,7.4l-7.4-6.2
			c-0.4,2.1,0.5,4.3,2.2,5.6l0.4,0.3c2.3,1.9,3.6,3,4.6,3s2.3-1.2,4.6-3.2c0.3-0.2,0.6-0.5,0.9-0.7l0.5-0.3l0.8-0.6l4.6,6.1l-11,7.2
			l-7.9-6.2L7.3,49.9z M2,47.9h3.3l-1-27.8l10.1,8l8-5.2L20.2,20l-0.5,0.4c-5.6,4.8-6.1,4.8-11.7,0.2l-0.4-0.3
			c-3.1-2.5-3.3-5.5-2.6-9.3l0.3-1.7l8.9,7.4l7.6-5.3l-2.3-2.8c-0.4,0.3-0.9,0.7-1.3,1.1c-1.6,1.4-3.2,2.7-4.9,2.6s-3.4-1.6-4.9-3
			C7.9,8.8,7.3,8.2,6.8,7.8C6.6,7.7,6.5,7.6,6.4,7.5L6.2,7.3L2,4.1V47.9z"/>
	</g>
</g>
</svg>
