<?xml version="1.0" encoding="utf-8"?>
<!-- Generator: Adobe Illustrator 23.0.2, SVG Export Plug-In . SVG Version: 6.00 Build 0)  -->
<svg version="1.1" id="Layer_1" xmlns="http://www.w3.org/2000/svg" xmlns:xlink="http://www.w3.org/1999/xlink" x="0px" y="0px"
	 viewBox="0 0 33.6 50.9" style="enable-background:new 0 0 33.6 50.9;" xml:space="preserve">
<style type="text/css">
	.st0{fill:#231F20;}
</style>
<title>Asset 22</title>
<g>
	<g id="Layer_1-2">
		<path class="st0" d="M20,50.9h-7.9V30.1l-6.9,7.3L0,32l3.7-3c2-1.6,4-3.2,5.9-4.8c2-1.4,3.1-3.8,2.9-6.2
			c-0.1-3.6-0.1-7.1-0.1-10.9c0-1.6,0-3.3,0-5V0l21.1,15.8l-5,6.2L19,13L20,50.9z M14.1,48.9h3.8l-1-38l2-0.5l9.4,8.8l2.4-3L14.6,4
			c0,1,0,2,0,3c0,3.8-0.1,7.3,0.1,10.8c0.2,3.1-1.2,6.1-3.7,7.9l-6,4.8l-2.1,1.7l2.2,2.3l8.9-9.4L14.1,48.9z"/>
	</g>
</g>
</svg>
