<?xml version="1.0" encoding="utf-8"?>
<!-- Generator: Adobe Illustrator 23.0.2, SVG Export Plug-In . SVG Version: 6.00 Build 0)  -->
<svg version="1.1" id="Layer_1" xmlns="http://www.w3.org/2000/svg" xmlns:xlink="http://www.w3.org/1999/xlink" x="0px" y="0px"
	 viewBox="0 0 26.8 43.5" style="enable-background:new 0 0 26.8 43.5;" xml:space="preserve">
<style type="text/css">
	.st0{fill:#231F20;}
</style>
<title>Asset 56</title>
<g>
	<g id="Layer_1-2">
		<path class="st0" d="M26.8,43.5h-7.9l0.1-1c0.1-1.1,0.1-2.2,0.2-3.2c0.1-2.5,0.3-5.2,0.5-7.8c0.3-1.1-0.3-2.3-1.3-2.8
			c-3-1.7-5.9-3.5-8.8-5.2l-2.5-1.6l1,21.2H0V0.4h7.7L7.7,1.5c-0.1,1-0.1,2.1-0.2,3.1C7.2,7.2,7,9.9,7,12.6c0,0.9,0.4,1.7,1,2.3
			c3,1.8,6.1,3.5,9.4,5.2l2,1.1V0h7.4L26.8,43.5z M20.9,41.5h3.8V2h-3.4v22.5l-1.5-0.8l-3.5-1.9c-3.3-1.8-6.4-3.4-9.4-5.3
			c-1.2-1-2-2.4-2-4c0-2.7,0.2-5.5,0.4-8.1c0-0.7,0.1-1.3,0.1-2H2v38.7h3.7L4.8,20.5l1.6-1.2L7,19.6l3.4,2.1
			c2.9,1.7,5.8,3.5,8.8,5.2c1.7,0.9,2.7,2.8,2.3,4.7c-0.3,2.5-0.4,5-0.5,7.7C21,40,21,40.8,20.9,41.5z"/>
	</g>
</g>
</svg>
