<?xml version="1.0" encoding="utf-8"?>
<!-- Generator: Adobe Illustrator 23.0.2, SVG Export Plug-In . SVG Version: 6.00 Build 0)  -->
<svg version="1.1" id="Layer_1" xmlns="http://www.w3.org/2000/svg" xmlns:xlink="http://www.w3.org/1999/xlink" x="0px" y="0px"
	 viewBox="0 0 32.3 45" style="enable-background:new 0 0 32.3 45;" xml:space="preserve">
<style type="text/css">
	.st0{fill:#231F20;}
</style>
<title>Asset 55</title>
<g>
	<g id="Layer_1-2">
		<path class="st0" d="M25.7,45l-9.6-16.6L6.6,45L0,41l0.6-0.9c0.7-1,1.3-1.9,2-2.9c1.6-2.3,3.2-4.6,4.8-6.8
			c0.6-0.8,0.6-1.1-0.1-1.8c-1.2-1.2-2.3-2.5-3.4-3.7l-1.4-1.6l-0.6-0.7l6.5-7.2L0.2,4l6.2-4l9.8,17L26,0.1l6.3,3.9l-0.6,0.9
			c-0.7,0.9-1.3,1.8-1.9,2.7c-1.5,2.1-2.9,4.1-4.5,6.1c-1.1,1.4-1.1,2.2,0.3,3.4c1.1,1,2.1,2.1,3.1,3.3l1.4,1.6l0.6,0.7L30,23.3
			c-0.5,0.5-1,1-1.4,1.6c-1,1.1-2,2.2-3,3.2s-1.2,1.8,0,3.2c1.5,1.9,2.9,4,4.3,6.1c0.6,0.9,1.2,1.8,1.8,2.8l0.6,0.9L25.7,45z
			 M16.2,24.3l10.3,17.9l3-1.9l-1.3-1.9c-1.4-2.1-2.7-4.1-4.2-6c-1.8-2.2-1.7-4,0.2-5.9c1-1,1.9-2,2.9-3.1l0.8-0.9l-0.8-0.9
			c-1-1.1-2-2.2-3-3.2c-2.1-2-2.2-3.9-0.5-6.1c1.5-1.9,2.9-3.9,4.4-6l1.3-1.9l-2.7-1.7L16.2,21L5.7,2.8L3,4.5l7.8,11l-6.3,7.1
			l0.8,0.9c1.1,1.3,2.2,2.5,3.4,3.7c1.3,1,1.5,2.9,0.5,4.2c-0.1,0.1-0.1,0.1-0.2,0.2c-1.6,2.2-3.2,4.4-4.8,6.8
			c-0.5,0.7-0.9,1.3-1.4,2l3.1,1.9L16.2,24.3z M21,27.4l-0.7-0.8c-3.2-4-3.2-4.6-0.1-8.2l0.7-0.8l5.5,4.9L21,27.4z M21.1,20.5
			c-0.7,0.9-1.2,1.5-1.2,1.9c0.3,0.8,0.7,1.6,1.3,2.2l2.2-1.9L21.1,20.5z M11.3,27.4l-5.4-4.8L11,18l0.6,0.4c1.6,1.1,2.6,2,2.8,3.3
			s-0.7,2.7-2.5,4.9L11.3,27.4z M8.9,22.6l2.2,2c0.8-1,1.4-2,1.4-2.5s-0.6-0.9-1.3-1.4L8.9,22.6z"/>
	</g>
</g>
</svg>
