<?xml version="1.0" encoding="utf-8"?>
<!-- Generator: Adobe Illustrator 23.0.2, SVG Export Plug-In . SVG Version: 6.00 Build 0)  -->
<svg version="1.1" id="Layer_1" xmlns="http://www.w3.org/2000/svg" xmlns:xlink="http://www.w3.org/1999/xlink" x="0px" y="0px"
	 viewBox="0 0 35.5 46.1" style="enable-background:new 0 0 35.5 46.1;" xml:space="preserve">
<style type="text/css">
	.st0{fill:#231F20;}
</style>
<title>Asset 54</title>
<g>
	<g id="Layer_1-2">
		<path class="st0" d="M18.2,46.1L0,33l5-6.4l6.7,5.9V0l5.5,0.8c5.6,0.9,10.9,1.7,16.3,2.6c1.2,0.2,2,2.2,2,3.2
			c0.1,6.7,0.1,13.4,0.1,20v16.4h-8.1l1.2-33.7L18.2,7.6V46.1z M2.9,32.6l13.4,9.5v-37l14.5,2.6l-1.2,33.3h4V26.7
			c0-6.5,0-13.3-0.1-20c0-0.5-0.2-0.9-0.4-1.3c-5.3-0.9-10.5-1.7-16.1-2.6l-3.2-0.5V37l-8.5-7.5L2.9,32.6z"/>
	</g>
</g>
</svg>
