<?xml version="1.0" encoding="utf-8"?>
<!-- Generator: Adobe Illustrator 23.0.2, SVG Export Plug-In . SVG Version: 6.00 Build 0)  -->
<svg version="1.1" id="Layer_1" xmlns="http://www.w3.org/2000/svg" xmlns:xlink="http://www.w3.org/1999/xlink" x="0px" y="0px"
	 viewBox="0 0 51 50.2" style="enable-background:new 0 0 51 50.2;" xml:space="preserve">
<style type="text/css">
	.st0{fill:#231F20;}
</style>
<title>Asset 52</title>
<g>
	<g id="Layer_1-2">
		<path class="st0" d="M29.3,50.2h-7.8V13.5l-8.1,9.8L0,10.7l5.8-5.1l7,9L25,0l13.4,14.1L45,6.1l6,5.1L38.5,24.3L28.6,13
			c-0.7,11-0.2,21.5,0.4,32.5L29.3,50.2z M23.5,48.2h3.7L27,45.6c-0.6-11.4-1.3-23.1-0.3-35.2l0.2-2.4l11.6,13.2l9.5-10l-2.8-2.4
			l-6.8,8.2L25.1,3L12.7,17.7L5.6,8.5L3,10.7l10.2,9.6l8.5-10.2l1.8,0.8L23.5,48.2z"/>
	</g>
</g>
</svg>
