<?xml version="1.0" encoding="utf-8"?>
<!-- Generator: Adobe Illustrator 23.0.2, SVG Export Plug-In . SVG Version: 6.00 Build 0)  -->
<svg version="1.1" id="Layer_1" xmlns="http://www.w3.org/2000/svg" xmlns:xlink="http://www.w3.org/1999/xlink" x="0px" y="0px"
	 viewBox="0 0 34.4 45.6" style="enable-background:new 0 0 34.4 45.6;" xml:space="preserve">
<style type="text/css">
	.st0{fill:#231F20;}
</style>
<title>Asset 51</title>
<g>
	<g id="Layer_1-2">
		<path class="st0" d="M20.9,45.6h-7.2V28.3l-8.8,7.5L0,29.4l12.1-8.2L0.2,13.1L4.8,7l9.6,8.3L13.5,0H21l-0.7,15.1l9.3-8l4.7,5.9
			l-12,8.1l12,8.2l-4.8,6.5l-8.7-7.4L20.9,45.6z M15.7,43.6h3.2V24.1l10.4,8.8l2.3-3.1l-12.7-8.7l12.6-8.5L29.4,10l-9.2,8l-1.9-1
			L19,2h-3.4l0.8,15.1l-2,1L5.1,9.9l-2,2.7l12.5,8.5L2.9,29.9l2.3,3l10.5-8.9V43.6z"/>
	</g>
</g>
</svg>
