<?xml version="1.0" encoding="utf-8"?>
<!-- Generator: Adobe Illustrator 23.0.2, SVG Export Plug-In . SVG Version: 6.00 Build 0)  -->
<svg version="1.1" id="Layer_1" xmlns="http://www.w3.org/2000/svg" xmlns:xlink="http://www.w3.org/1999/xlink" x="0px" y="0px"
	 viewBox="0 0 19.3 46.7" style="enable-background:new 0 0 19.3 46.7;" xml:space="preserve">
<style type="text/css">
	.st0{fill:#231F20;}
</style>
<title>Asset 14</title>
<g>
	<g id="Layer_1-2">
		<path class="st0" d="M19.3,46.7H11l0.1-1c0.1-1.3,0.1-2.7,0.1-4c0.1-3.1,0.2-6.3,0.5-9.5c0.3-2.8-0.5-4.4-2.8-5.8
			c-1.8-1.1-3.6-2.3-5.4-3.5l-2.5-1.6L0,20.6l4.4-6.1l7.4,6.4c0.8-2.9,0.2-3.9-2.4-5.7c-1.8-1.3-3.7-2.5-5.8-3.8L0.9,9.8L0,9.2
			l4.5-6.3l7.5,6.6L11.3,0h8l-0.2,1.1c-1.2,9.9-0.8,20-0.3,29.7c0.2,4.8,0.5,9.8,0.5,14.8V46.7z M13.1,44.7h4.2
			c0-4.6-0.3-9.2-0.5-13.7C16.4,21.5,15.9,11.7,17,2h-3.5l0.8,9.8l-2,0.5L4.9,5.8l-2,2.8l1.9,1.2c2,1.3,4,2.5,5.9,3.8
			c3.7,2.6,4.3,4.7,2.7,9.4l-0.5,1.4l-8-7l-1.9,2.6l1.6,1c1.8,1.2,3.6,2.3,5.4,3.4c2.8,1.5,4.4,4.6,3.8,7.8
			c-0.4,3.1-0.4,6.3-0.5,9.3C13.2,42.6,13.1,43.6,13.1,44.7z"/>
	</g>
</g>
</svg>
