<?xml version="1.0" encoding="utf-8"?>
<!-- Generator: Adobe Illustrator 23.0.2, SVG Export Plug-In . SVG Version: 6.00 Build 0)  -->
<svg version="1.1" id="Layer_1" xmlns="http://www.w3.org/2000/svg" xmlns:xlink="http://www.w3.org/1999/xlink" x="0px" y="0px"
	 viewBox="0 0 35 46.7" style="enable-background:new 0 0 35 46.7;" xml:space="preserve">
<style type="text/css">
	.st0{fill:#231F20;}
</style>
<title>Asset 74</title>
<g>
	<g id="Layer_1-2">
		<path class="st0" d="M35,46.7l-4.4-2.9c-2.3-1.5-4.5-3-6.8-4.4c-0.7-0.4-1.4-1-2.1-1.5c-1.6-1.2-3.2-2.4-4.6-2.4s-2.9,1.1-4.4,2.2
			c-0.7,0.5-1.4,1-2.2,1.5c-1.9,1.1-3.8,2.3-5.9,3.5L0,45.3V0l1.5,1C2.7,1.7,3.8,2.5,5,3.2c2.8,1.7,5.5,3.5,8.1,5.5
			c3.5,2.8,6.1,2.9,9.5,0.2c2.2-1.6,4.6-3.1,7.1-4.4c1.2-0.7,2.4-1.3,3.7-2.1L35,1.4V46.7z M16.9,33.5H17c2.1,0.1,3.9,1.5,5.7,2.8
			c0.7,0.5,1.3,1,2,1.4c2.3,1.5,4.6,2.9,6.9,4.4L33,43V4.9c-0.8,0.4-1.5,0.8-2.2,1.3c-2.4,1.2-4.6,2.7-6.8,4.2
			c-4.1,3.2-7.8,3.1-12-0.2C9.4,8.3,6.8,6.5,4,4.9L2,3.7v38.2l1.5-0.9c2.1-1.3,4-2.4,6-3.6c0.6-0.4,1.3-0.8,2-1.3
			C13.2,34.8,15,33.5,16.9,33.5z M3.8,38.9V24.6l11.7,7.3L3.8,38.9z M5.8,28.2v7.2l5.9-3.6L5.8,28.2z M30.4,37.7l-11-6.1l11-6.4
			L30.4,37.7z M23.4,31.5l5,2.8v-5.7L23.4,31.5z M17.7,30.1c-0.5,0-1-0.2-1.5-0.5c-2.3-1.3-4.5-2.6-7-4l-3.7-2.2l1.4-0.9
			c0.9-0.5,1.7-1,2.5-1.6c2.2-1.4,4.3-2.7,6.4-3.9c1-0.5,2.2-0.5,3.3,0c2.1,1.1,4.2,2.3,6.4,3.6l2.6,1.5l1.5,0.9L26,25.4
			c-2.6,1.6-5.1,3.1-7.6,4.6C18.2,30.1,17.9,30.2,17.7,30.1z M9.4,23.5l0.9,0.5c2.4,1.4,4.7,2.7,6.9,4c0.1,0.1,0.2,0.1,0.4,0.2
			c2.4-1.4,4.8-2.9,7.4-4.5l0.7-0.4l-1.1-0.7c-2.2-1.3-4.3-2.5-6.3-3.6c-0.4-0.2-0.9-0.2-1.3-0.1c-2.1,1.2-4.1,2.5-6.3,3.9L9.4,23.5
			z M31,22l-11.5-7.2l11.5-7V22z M23.3,14.9l5.7,3.5v-7L23.3,14.9z M4.6,21.5V9l11.1,6.2L4.6,21.5z M6.6,12.4v5.7l5-2.9L6.6,12.4z"
			/>
	</g>
</g>
</svg>
