<?xml version="1.0" encoding="utf-8"?>
<!-- Generator: Adobe Illustrator 23.0.2, SVG Export Plug-In . SVG Version: 6.00 Build 0)  -->
<svg version="1.1" id="Layer_1" xmlns="http://www.w3.org/2000/svg" xmlns:xlink="http://www.w3.org/1999/xlink" x="0px" y="0px"
	 viewBox="0 0 35.7 46.5" style="enable-background:new 0 0 35.7 46.5;" xml:space="preserve">
<style type="text/css">
	.st0{fill:#231F20;}
</style>
<title>Asset 73</title>
<g>
	<g id="Layer_1-2">
		<path class="st0" d="M7.8,46.5H0V1.7l2-0.6l16.2,13L35.7,0v46.5h-7.1l0.1-1c0-1,0.1-2,0.2-3c0.2-2.6,0.3-5,0.3-7.5
			c0-0.9-0.4-1.8-1.1-2.5c-2.5-2.5-5.1-4.8-7.9-7.3l-2.4-2.1c-0.7,0.7-1.4,1.3-2.2,1.9c-2.9,2.6-5.6,5-8.3,7.5
			c-0.3,0.6-0.4,1.2-0.3,1.8c0.1,2.7,0.3,5.3,0.4,8L7.8,46.5z M2,44.5h3.7l-0.1-2c-0.2-2.8-0.3-5.4-0.4-8.1
			c-0.1-1.6,0.2-2.7,0.9-3.3c2.7-2.6,5.5-5,8.4-7.6c0.9-0.8,1.9-1.7,2.8-2.5l0.7-0.6l0.7,0.6l3,2.7c2.8,2.5,5.4,4.8,7.9,7.3
			c1.1,1.1,1.7,2.5,1.7,4c0,2.5-0.2,5-0.3,7.6l-0.1,1.9h2.9V4.2L18.3,16.7L2,3.7V44.5z M4.9,27.1V9.3l10.8,9.3L4.9,27.1z M6.9,13.7
			V23l5.7-4.4L6.9,13.7z M31.3,26.8l-11-8.4l11-9.5V26.8z M23.5,18.3l5.8,4.5v-9.5L23.5,18.3z"/>
	</g>
</g>
</svg>
