<?xml version="1.0" encoding="utf-8"?>
<!-- Generator: Adobe Illustrator 23.0.2, SVG Export Plug-In . SVG Version: 6.00 Build 0)  -->
<svg version="1.1" id="Layer_1" xmlns="http://www.w3.org/2000/svg" xmlns:xlink="http://www.w3.org/1999/xlink" x="0px" y="0px"
	 viewBox="0 0 42.8 47.7" style="enable-background:new 0 0 42.8 47.7;" xml:space="preserve">
<style type="text/css">
	.st0{fill:#231F20;}
</style>
<title>Asset 72</title>
<g>
	<g id="Layer_1-2">
		<path class="st0" d="M37.5,47.7h-8.4v-6.8l-5.5,0.8v-8.3l5.7,0.6V21.1l-23,22.1V13.5L0,14.1V6.4l5.7,0.7L5.3,0h8.2v7.1l5.5-0.7V14
			l-6-0.5v14.2L34.8,5l2,0.3V34l6-0.6v8.4l-5.3-0.8L37.5,47.7z M31.1,45.7h4.4v-7.1l5.3,0.8v-3.8l-6,0.6V7.9L11.1,32.7V11.4l6,0.5
			V8.7l-5.5,0.7V2H7.4l0.4,7.4L2,8.7v3.2l6.3-0.6v27.2l23-22.1v19.8l-5.7-0.6v3.8l5.5-0.8L31.1,45.7z"/>
	</g>
</g>
</svg>
