<?xml version="1.0" encoding="utf-8"?>
<!-- Generator: Adobe Illustrator 23.0.2, SVG Export Plug-In . SVG Version: 6.00 Build 0)  -->
<svg version="1.1" id="Layer_1" xmlns="http://www.w3.org/2000/svg" xmlns:xlink="http://www.w3.org/1999/xlink" x="0px" y="0px"
	 viewBox="0 0 42.5 54.5" style="enable-background:new 0 0 42.5 54.5;" xml:space="preserve">
<style type="text/css">
	.st0{fill:#231F20;}
</style>
<title>Asset 70</title>
<g>
	<g id="Layer_1-2">
		<path class="st0" d="M25.6,54.5H17l0.1-1.1c0.1-1.2,0.1-2.3,0.2-3.5c0.1-2.6,0.3-5.2,0.6-7.8c0.6-4.4-1.5-7.1-5.3-10l-6.4,7.3
			l-5.9-6l7.2-6.3L0,20.8l6.3-5.6l6.4,7.1c4.6-3.3,6.2-6.5,5.6-10.9c-0.3-2.4-0.5-4.7-0.6-7.1c-0.1-1.1-0.1-2.2-0.2-3.3L17.3,0h8.2
			l-0.1,1.1c-0.1,1-0.2,2-0.2,3c-0.2,2.1-0.3,4.3-0.6,6.5c-0.8,5,1,8.8,5.6,11.7l6.7-7.5l5.7,6.2l-7.2,6.3l7.3,6.4l-6.2,5.6l-6.3-7
			c-4.2,2.9-5.8,6.2-5.3,10.7c0.3,2.3,0.4,4.7,0.6,7.1c0.1,1.1,0.1,2.2,0.2,3.3L25.6,54.5z M19.2,52.5h4.3c0-0.8-0.1-1.5-0.1-2.3
			c-0.1-2.4-0.2-4.7-0.5-7c-0.7-5.5,1.5-9.8,6.9-13.1l0.7-0.5l6.1,6.8l3-2.8l-7.3-6.5l7.3-6.5l-2.8-3.1l-6.3,7.1l-0.7-0.4
			c-5.7-3.4-8.1-8-7.2-14.1c0.3-2.1,0.5-4.2,0.6-6.3L23.3,2h-3.9c0,0.8,0.1,1.5,0.1,2.2c0.1,2.4,0.3,4.7,0.6,6.9
			c1,6.9-3.3,10.7-7.2,13.3l-0.7,0.5L6.1,18L3,20.8l7.5,6.5l-7.2,6.4l2.9,3l6.3-7.1l0.7,0.5c3.7,2.7,7.6,6.2,6.8,12.4
			c-0.3,2.5-0.5,5.1-0.6,7.7C19.3,50.9,19.2,51.7,19.2,52.5z M20.9,33.7L14.5,27l6.9-6.1l7.2,6.5L20.9,33.7z M17.4,27.1l3.7,3.9
			l4.5-3.7l-4.1-3.7L17.4,27.1z"/>
	</g>
</g>
</svg>
