<?xml version="1.0" encoding="utf-8"?>
<!-- Generator: Adobe Illustrator 23.0.2, SVG Export Plug-In . SVG Version: 6.00 Build 0)  -->
<svg version="1.1" id="Layer_1" xmlns="http://www.w3.org/2000/svg" xmlns:xlink="http://www.w3.org/1999/xlink" x="0px" y="0px"
	 viewBox="0 0 33.4 53.4" style="enable-background:new 0 0 33.4 53.4;" xml:space="preserve">
<style type="text/css">
	.st0{fill:#231F20;}
</style>
<title>Asset 68</title>
<g>
	<g id="Layer_1-2">
		<path class="st0" d="M26,53.4L16.4,43l-9,10.3L1.9,47l10.5-9.2L0,27.2l11.9-11.8L1.3,5.7l6.4-5.6l9.2,10L25.8,0L32,5.6l-10.9,9.5
			L33.4,26L21.6,37.8l10.2,9.4L26,53.4z M16.3,40L26,50.5l3-3.1l-10.3-9.5l11.8-11.7L18,15.1l11-9.6l-3-2.7l-9,10.2L7.6,2.9L4.3,5.7
			l10.4,9.6L2.9,27.1l12.4,10.8L4.7,47.2l2.7,3L16.3,40z M16.6,35.7l-9.4-8.9l10-9.5l8.7,9.6L16.6,35.7z M10.1,26.8l6.5,6.2l6.5-6.2
			l-6-6.6L10.1,26.8z"/>
	</g>
</g>
</svg>
