<?xml version="1.0" encoding="utf-8"?>
<!-- Generator: Adobe Illustrator 23.0.2, SVG Export Plug-In . SVG Version: 6.00 Build 0)  -->
<svg version="1.1" id="Layer_1" xmlns="http://www.w3.org/2000/svg" xmlns:xlink="http://www.w3.org/1999/xlink" x="0px" y="0px"
	 viewBox="0 0 49.7 49.7" style="enable-background:new 0 0 49.7 49.7;" xml:space="preserve">
<style type="text/css">
	.st0{fill:#231F20;}
</style>
<title>Asset 66</title>
<g>
	<g id="Layer_1-2">
		<path class="st0" d="M22.1,49.7V28h-8.2l5.6,6.3l-6,5L0,21.6h22.1v-8.9l-7.3,6.8L10,13.6L28.3,0v21.4h8.6l-7.3-7.9l5.8-4.8
			l14.3,18.9H28.6v8.1l5.7-5l5,6L22.1,49.7z M9.5,26h14.6v19.7l12.3-9.4l-2.3-2.8l-7.5,6.6V25.6h19L35,11.6l-2.5,2.1l8.9,9.7H26.3V4
			L12.9,14l2.1,2.6l9.1-8.5v15.6H4l9.8,12.8l2.8-2.3L9.5,26z"/>
	</g>
</g>
</svg>
