<?xml version="1.0" encoding="utf-8"?>
<!-- Generator: Adobe Illustrator 23.0.2, SVG Export Plug-In . SVG Version: 6.00 Build 0)  -->
<svg version="1.1" id="Layer_1" xmlns="http://www.w3.org/2000/svg" xmlns:xlink="http://www.w3.org/1999/xlink" x="0px" y="0px"
	 viewBox="0 0 48.3 30.6" style="enable-background:new 0 0 48.3 30.6;" xml:space="preserve">
<style type="text/css">
	.st0{fill:#231F20;}
</style>
<title>Asset 64</title>
<g>
	<g id="Layer_1-2">
		<path class="st0" d="M47.4,30.6h-8.6l-1.5-9C30.9,27,24.3,28.7,17.2,27c-6.6-1.6-12-5.3-16.6-11.3L0,14.9l0.8-0.6
			c0.9-0.7,1.7-1.4,2.5-2.1C5,10.7,6.7,9.3,8.4,8.1c9.5-6.8,20.2-6.4,29.3,1l0,0L39,0h9.4l-0.5,1.4c-0.5,1.2-0.9,2.3-1.3,3.5
			c-1.1,3-2.2,5.9-3.2,8.8c-0.3,0.8-0.3,1.6,0,2.4c2.2,4.2,3.6,8.8,3.9,13.5L47.4,30.6z M40.5,28.6h4.7c-0.4-4.1-1.7-8-3.6-11.6
			c-0.5-1.3-0.6-2.7-0.1-4c1-2.9,2-5.8,3.2-8.8L45.5,2h-4.8l-1.5,10.8l-2.2-1.6l-0.7-0.5C28,3.7,18.4,3.4,9.6,9.7
			c-1.7,1.2-3.3,2.6-5,4l-1.8,1.5c3.7,4.9,8.9,8.3,14.9,9.8c7,1.7,13.3-0.2,19.7-6.1l1.4-1.2L40.5,28.6z M23.1,22.3L23.1,22.3
			c-5,0-9.7-2.3-12.9-6.1l-0.5-0.5l0.4-0.6c2.5-4.2,7-6.8,11.8-6.9c5.5-0.2,10.7,2.4,13.8,6.9l0.4,0.6l-0.5,0.6
			C32.6,20,28,22.2,23.1,22.3z M12.2,15.4c2.8,3.1,6.7,4.8,10.9,4.9l0,0c4,0,7.8-1.7,10.5-4.7c-2.8-3.6-7.1-5.6-11.6-5.4
			C18.1,10.2,14.4,12.1,12.2,15.4z"/>
	</g>
</g>
</svg>
