<?xml version="1.0" encoding="utf-8"?>
<!-- Generator: Adobe Illustrator 23.0.2, SVG Export Plug-In . SVG Version: 6.00 Build 0)  -->
<svg version="1.1" id="Layer_1" xmlns="http://www.w3.org/2000/svg" xmlns:xlink="http://www.w3.org/1999/xlink" x="0px" y="0px"
	 viewBox="0 0 35.9 36.8" style="enable-background:new 0 0 35.9 36.8;" xml:space="preserve">
<style type="text/css">
	.st0{fill:#231F20;}
</style>
<title>Asset 61</title>
<g>
	<g id="Layer_1-2">
		<path class="st0" d="M35.9,36.8l-2.7-2L31,33.3l-3.2-2.4c-3-2.2-6.1-4.5-9-6.9c-1.1-0.8-1.5-0.9-2.5,0c-3,2.5-6.1,4.9-9.1,7.3
			L4,33.7c-0.4,0.3-0.9,0.7-1.4,1.1L0,36.7V0l18.3,14.9L35.9,1.1V36.8z M17.5,21.4c0.9,0.1,1.8,0.4,2.5,1.1c3,2.3,6,4.6,9,6.8
			l3.3,2.4l1.6,1.2V5.2L18.3,17.4L2,4.2v28.6c0.3-0.2,0.5-0.4,0.8-0.6L6,29.7c3-2.3,6.1-4.8,9-7.2C15.7,21.8,16.6,21.4,17.5,21.4z
			 M4.3,28.3l1.1-16.6l10.5,7.7L4.3,28.3z M7.1,15.5L6.6,24l6-4.6L7.1,15.5z M31.5,27.9L20,18.8l11.6-9L31.5,27.9z M23.2,18.8l6.3,5
			v-9.9L23.2,18.8z"/>
	</g>
</g>
</svg>
