<?xml version="1.0" encoding="utf-8"?>
<!-- Generator: Adobe Illustrator 23.0.2, SVG Export Plug-In . SVG Version: 6.00 Build 0)  -->
<svg version="1.1" id="Layer_1" xmlns="http://www.w3.org/2000/svg" xmlns:xlink="http://www.w3.org/1999/xlink" x="0px" y="0px"
	 viewBox="0 0 21.3 46.1" style="enable-background:new 0 0 21.3 46.1;" xml:space="preserve">
<title>Asset 95</title>
<g>
	<g id="Layer_1-2">
		<path d="M4.8,20.1l12.9-14l3.6,4.1c-0.3,0.3-1.1,0.9-1.8,1.6c-4.2,4-8.4,8-12.6,12c-1.7,1.6-2.5,3.9-2.3,6.3
			c0.2,5.3,0.1,10.6,0.1,16.1H0V0.2C0.4,0.1,0.8,0,1.1,0c1.3,0,2.5,0,4,0L4.6,7.7l0.6,0.3l6.7-7.7l3.8,3.7c-2.4,2.1-5,4.3-7.5,6.6
			S3.5,15.6,4.8,20.1z"/>
	</g>
</g>
</svg>
