<?xml version="1.0" encoding="utf-8"?>
<!-- Generator: Adobe Illustrator 23.0.2, SVG Export Plug-In . SVG Version: 6.00 Build 0)  -->
<svg version="1.1" id="Layer_1" xmlns="http://www.w3.org/2000/svg" xmlns:xlink="http://www.w3.org/1999/xlink" x="0px" y="0px"
	 viewBox="0 0 24.7 48.4" style="enable-background:new 0 0 24.7 48.4;" xml:space="preserve">
<title>Asset 90</title>
<g>
	<g id="Layer_1-2">
		<path d="M4.1,0l20.7,17l-4.2,4.8l-12-11.5C8.5,15,8.3,19,8.7,23c0.1,1.3,2,2.4,3.4,3.9c-4.7,2.4-3.6,6.6-3.4,10.6
			c0.2,3.6,0.5,7.1,0.7,10.9H3.2c0.2-3.7,0.4-7.3,0.6-11c0-0.7,0.1-1.3,0.2-2c0.6-3.5,0-6.6-4-8.7c4.5-2.2,4.2-5.7,4.1-9.3
			C4,11.7,4.1,6,4.1,0z"/>
	</g>
</g>
</svg>
