<?xml version="1.0" encoding="utf-8"?>
<!-- Generator: Adobe Illustrator 23.0.2, SVG Export Plug-In . SVG Version: 6.00 Build 0)  -->
<svg version="1.1" id="Layer_1" xmlns="http://www.w3.org/2000/svg" xmlns:xlink="http://www.w3.org/1999/xlink" x="0px" y="0px"
	 viewBox="0 0 30.5 39.2" style="enable-background:new 0 0 30.5 39.2;" xml:space="preserve">
<style type="text/css">
	.st0{fill:#231F20;}
</style>
<title>Asset 10</title>
<g>
	<g id="Layer_1-2">
		<path class="st0" d="M19.6,39.2h-8.3V7L0,7.8V0h30.5v7.8l-1.1-0.1l-2.7-0.2c-2-0.1-4.2-0.3-6.3-0.5c-0.5-0.1-0.9-0.1-1.4,0.2
			c-0.3,0.4-0.4,0.9-0.3,1.3c0.2,7.2,0.4,14.5,0.5,21.7l0.1,6.7c0,0.2,0,0.5,0,0.8V39.2z M13.3,37.2h4.3V37l-0.1-6.7
			c-0.2-7.2-0.3-14.5-0.5-21.7c-0.1-1,0.2-2.1,0.9-2.9c0.8-0.7,1.9-0.9,2.9-0.7c2,0.2,4.1,0.4,6.2,0.5l1.6,0.1V2H2v3.6l11.3-0.8
			V37.2z"/>
	</g>
</g>
</svg>
