<?xml version="1.0" encoding="utf-8"?>
<!-- Generator: Adobe Illustrator 23.0.2, SVG Export Plug-In . SVG Version: 6.00 Build 0)  -->
<svg version="1.1" id="Layer_1" xmlns="http://www.w3.org/2000/svg" xmlns:xlink="http://www.w3.org/1999/xlink" x="0px" y="0px"
	 viewBox="0 0 27.5 44.1" style="enable-background:new 0 0 27.5 44.1;" xml:space="preserve">
<title>Asset 111</title>
<g>
	<g id="Layer_1-2">
		<path d="M16.8,44.1h-6.3c0.2-2.1,0.3-4.3,0.3-6.4c-0.1-1.4-0.5-2.7-1.3-3.7c-3-3.5-6.2-6.8-9.5-10.4c2-2.2,4.2-5.2,7-7.4
			c4.7-3.7,4.9-8.3,3.9-13.5c-0.1-0.6-0.2-1.2-0.2-1.8c0-0.3,0.1-0.6,0.2-0.9h6c-0.3,2.7-0.5,5.3-0.8,7.9c-0.4,1.9,0.3,3.9,1.8,5.3
			c3.4,3.5,6.6,7.1,9.8,10.5c-2.3,2.6-4.4,5.3-6.9,7.5c-3.3,2.8-5.1,5.8-3.8,10.1C16.9,42.2,16.9,43.2,16.8,44.1z M16.1,29.9
			l6.4-5.8l-6.4-5.9L16.1,29.9z M11.2,18.2l-6.1,5.7l6.1,6.3V18.2z"/>
	</g>
</g>
</svg>
