<?xml version="1.0" encoding="utf-8"?>
<!-- Generator: Adobe Illustrator 23.0.2, SVG Export Plug-In . SVG Version: 6.00 Build 0)  -->
<svg version="1.1" id="Layer_1" xmlns="http://www.w3.org/2000/svg" xmlns:xlink="http://www.w3.org/1999/xlink" x="0px" y="0px"
	 viewBox="0 0 37.2 44.9" style="enable-background:new 0 0 37.2 44.9;" xml:space="preserve">
<title>Asset 110</title>
<g>
	<g id="Layer_1-2">
		<path d="M15.9,44.9c0.1-8.2,0.1-16.2,0.3-24.2c0.1-1.8-0.7-3.5-2.2-4.6c-4.6-4-9.2-8.1-14-12.4L4.1,0l11.8,12.4
			c-0.3-4.3-0.5-7.8-0.7-11.5h7c-0.2,3.7-0.4,7.3-0.6,11l0.6,0.3l11-12.1l3.9,3.9c-3.2,2.9-6.3,6.2-9.9,8.9c-4.9,3.7-7,8.1-6.2,14.2
			c0.4,2.9,0,6,0.2,9s0.6,5.8,0.9,8.9L15.9,44.9z"/>
	</g>
</g>
</svg>
