<?xml version="1.0" encoding="utf-8"?>
<!-- Generator: Adobe Illustrator 23.0.2, SVG Export Plug-In . SVG Version: 6.00 Build 0)  -->
<svg version="1.1" id="Layer_1" xmlns="http://www.w3.org/2000/svg" xmlns:xlink="http://www.w3.org/1999/xlink" x="0px" y="0px"
	 viewBox="0 0 33 43" style="enable-background:new 0 0 33 43;" xml:space="preserve">
<title>Asset 149</title>
<g>
	<g id="Layer_1-2">
		<path d="M33,43c-3.2-2.1-6.5-4.2-9.7-6.3c-2.4-1.5-4.8-4-7.2-4.1s-4.8,2.3-7.1,3.8C6.1,38,3.4,39.7,0,41.7V0
			c3.8,2.4,7.9,4.7,11.5,7.6s6.9,3.2,10.8,0.2c3-2.4,6.6-4,10.7-6.4L33,43z M6.5,21.7c3.4,1.9,6.3,3.6,9.3,5.3
			c0.3,0.2,0.9,0.4,1.2,0.3c3.2-1.9,6.3-3.8,9.7-5.9c-3.4-1.9-6.1-3.6-9-5.1c-0.7-0.3-1.6-0.4-2.3,0C12.5,17.9,9.7,19.7,6.5,21.7z
			 M3.8,35.3l8.8-5.3l-8.8-5.5V35.3z M29,18.4V7.8l-8.6,5.2L29,18.4z M28.4,25l-8,4.7l8,4.4V25z M4.6,18l8.1-4.6L4.6,8.9V18z"/>
	</g>
</g>
</svg>
