<?xml version="1.0" encoding="utf-8"?>
<!-- Generator: Adobe Illustrator 23.0.2, SVG Export Plug-In . SVG Version: 6.00 Build 0)  -->
<svg version="1.1" id="Layer_1" xmlns="http://www.w3.org/2000/svg" xmlns:xlink="http://www.w3.org/1999/xlink" x="0px" y="0px"
	 viewBox="0 0 28.9 43.8" style="enable-background:new 0 0 28.9 43.8;" xml:space="preserve">
<title>Asset 146</title>
<g>
	<g id="Layer_1-2">
		<path d="M10.4,12.3c3.8-4,0.8-8.3,1.5-12.3H17c0.8,3.9-2.3,8.2,1.5,12.2L24.7,1l4.1,2.5l-7.9,11.2l6.9,7.3L21,28.6l7.9,11.6
			L24.6,43c-2.2-3.8-4.2-7.4-6.3-11.1L17.5,32c-1.6,3.8,0.2,7.8-0.4,11.8h-5.3c-0.5-3.9,1-8-0.3-11.8l-0.8-0.1L4.3,43L0,40.3
			l7.9-11.7l-6.8-6.5L8,14.7L0.1,3.6l4-2.6C6.2,4.7,8.2,8.3,10.4,12.3z M5.7,22.3l3.9,3.5c3.1-3.6,3.2-3.8,0.3-7.3L5.7,22.3z
			 M19,18.3c-2.9,3.8-2.9,4.1,0.1,7l3.9-3.3L19,18.3z"/>
	</g>
</g>
</svg>
