<?xml version="1.0" encoding="utf-8"?>
<!-- Generator: Adobe Illustrator 23.0.2, SVG Export Plug-In . SVG Version: 6.00 Build 0)  -->
<svg version="1.1" id="Layer_1" xmlns="http://www.w3.org/2000/svg" xmlns:xlink="http://www.w3.org/1999/xlink" x="0px" y="0px"
	 viewBox="0 0 34.6 42.6" style="enable-background:new 0 0 34.6 42.6;" xml:space="preserve">
<title>Asset 144</title>
<g>
	<g id="Layer_1-2">
		<path d="M9.3,14.4L0,3.9l4.2-3.4l7.7,11.1l5.5-5.8l4.4,5L27.8,0l4.6,2.9c-2.7,3.6-5.3,7-8.1,10.6l7.2,7.6l-6.7,6.3
			c3.4,3.9,6.5,7.6,9.8,11.5l-4.5,3.6l-8.5-11.8L17.3,35l-4.1-3.7C11,35,8.9,38.5,6.6,42.3l-4.8-3.1c2.8-3.8,5.4-7.5,8.3-11.4
			l-7.1-6.5L9.3,14.4z M22.7,24.6l3.3-3.4l-3.8-3.6C19.2,21.1,19.2,21.1,22.7,24.6z M14.6,21.3c-0.9-1.2-1.8-2.2-2.7-3.3l-3.1,3
			l3.4,3.8L14.6,21.3z M17.2,24.8c-0.8,1.3-1.4,2.2-2,3.3l2.2,2l2.1-2.3L17.2,24.8z M14.9,15.3l2.1,2.5c0.7-1.6,3.1-2.8,0.2-4.5
			L14.9,15.3z"/>
	</g>
</g>
</svg>
