<?xml version="1.0" encoding="utf-8"?>
<!-- Generator: Adobe Illustrator 23.0.2, SVG Export Plug-In . SVG Version: 6.00 Build 0)  -->
<svg version="1.1" id="Layer_1" xmlns="http://www.w3.org/2000/svg" xmlns:xlink="http://www.w3.org/1999/xlink" x="0px" y="0px"
	 viewBox="0 0 22.8 45" style="enable-background:new 0 0 22.8 45;" xml:space="preserve">
<title>Asset 128</title>
<g>
	<g id="Layer_1-2">
		<path d="M5.6,45H0C0.3,30,0.6,15,0.9,0c12.8,5.7,21.4,26.5,21.9,44.9h-5.6c0-2.7-0.1-5.4,0-8.1s-0.8-4.1-3.7-4.4v12.5h-4
			c0-3.7,0-7.4,0-11.1c0-2.6-1.2-3.8-4-3.5L5.6,45z M16.3,29.5C14.2,21,11,14,5.1,7.9c0,5.7,0,10.8,0,15.9c0,0.7,0.4,1.2,0.9,1.6
			C9.2,26.8,12.4,28,16.3,29.5L16.3,29.5z"/>
	</g>
</g>
</svg>
