<?xml version="1.0" encoding="utf-8"?>
<!-- Generator: Adobe Illustrator 23.0.2, SVG Export Plug-In . SVG Version: 6.00 Build 0)  -->
<svg version="1.1" id="Layer_1" xmlns="http://www.w3.org/2000/svg" xmlns:xlink="http://www.w3.org/1999/xlink" x="0px" y="0px"
	 viewBox="0 0 27.2 37.8" style="enable-background:new 0 0 27.2 37.8;" xml:space="preserve">
<title>Asset 125</title>
<g>
	<g id="Layer_1-2">
		<path d="M0,0c4.3,3,8.4,5.7,12.3,8.6c1.4,1,2.5,1.2,4,0.2c3.5-2.4,7.2-4.5,11-6.8v35.7c-3.9-2.5-7.3-4.5-10.6-6.8
			c-1.9-1.3-3.2-1.5-5.2,0c-3.3,2.4-6.8,4.5-10.6,7C0.6,25.1,0.3,12.8,0,0z M5.5,29.7c2.2-1.4,4.5-2.6,6.5-4.1
			c1.5-1.1,2.6-1,4.1,0.1c2.1,1.6,4.5,2.9,6.9,4.5V9.9c-2.6,1.8-4.9,3.5-7.3,4.9c-0.9,0.4-2,0.5-2.9,0.1c-2.3-1.1-4.5-2.6-7.3-4.3
			L5.5,29.7z"/>
	</g>
</g>
</svg>
