<?xml version="1.0" encoding="utf-8"?>
<!-- Generator: Adobe Illustrator 23.0.2, SVG Export Plug-In . SVG Version: 6.00 Build 0)  -->
<svg version="1.1" id="Layer_1" xmlns="http://www.w3.org/2000/svg" xmlns:xlink="http://www.w3.org/1999/xlink" x="0px" y="0px"
	 viewBox="0 0 23.7 48.2" style="enable-background:new 0 0 23.7 48.2;" xml:space="preserve">
<style type="text/css">
	.st0{fill:#231F20;}
</style>
<title>Asset 20</title>
<g>
	<g id="Layer_1-2">
		<path class="st0" d="M6.7,48.2H0V0.5l1-0.2c0.4-0.1,0.7-0.2,1.1-0.2c0.9,0,1.8,0,2.8,0h2.3L6.8,7l6.1-7l5.3,5.2l-0.8,0.7l-2.2,1.9
			c-1.7,1.5-3.5,3.1-5.2,4.7c-1.9,1.8-3.6,3.6-3.4,6.6L18.7,5.7l5,5.7l-1.1,1c-0.4,0.3-0.9,0.8-1.4,1.2l-2,1.9
			c-3.5,3.3-7.1,6.7-10.6,10.1C7,27,6.3,29,6.5,31.1c0.1,3.7,0.1,7.4,0.1,11.3c0,1.6,0,3.2,0,4.8L6.7,48.2z M2,46.2h2.7
			c0-1.3,0-2.5,0-3.8c0-3.9,0.1-7.5-0.1-11.2c-0.2-2.6,0.7-5.2,2.6-7c3.5-3.4,7.2-6.8,10.7-10.1l2-1.9c0.4-0.4,0.7-0.7,1.1-0.9
			l-2.2-2.5L5.4,23.2l-0.5-1.7c-1.6-5.1,1-8.1,3.6-10.5c1.8-1.6,3.5-3.2,5.3-4.7l1.4-1.2l-2.2-2.2l-6.5,7.5L4.6,9.4l0.6-7.3H4.9
			c-1,0-1.9,0-2.7,0H2V46.2z"/>
	</g>
</g>
</svg>
