<?xml version="1.0" encoding="utf-8"?>
<!-- Generator: Adobe Illustrator 23.0.2, SVG Export Plug-In . SVG Version: 6.00 Build 0)  -->
<svg version="1.1" id="Layer_1" xmlns="http://www.w3.org/2000/svg" xmlns:xlink="http://www.w3.org/1999/xlink" x="0px" y="0px"
	 viewBox="0 0 40.2 47.3" style="enable-background:new 0 0 40.2 47.3;" xml:space="preserve">
<style type="text/css">
	.st0{fill:#231F20;}
</style>
<title>Asset 35</title>
<g>
	<g id="Layer_1-2">
		<path class="st0" d="M24.8,47.3h-8.3l0.1-7.7c0.1-6,0.1-11.7,0.2-17.5c0.1-1.5-0.6-2.9-1.8-3.8c-3.4-2.9-6.6-5.8-10-8.9l-4-3.6
			L0,5l5.7-5l10.6,11.1l-0.6-9.9h9.1l-0.6,10.3L34.8,0l5.4,5.4l-0.8,0.7c-1,0.9-2,1.8-2.9,2.7c-2.2,2.2-4.6,4.3-7.1,6.2
			c-4.8,3.6-6.6,7.7-5.8,13.3c0.2,1.8,0.3,3.6,0.2,5.4c0,1.2-0.1,2.4,0,3.6c0.1,2,0.3,3.9,0.6,6c0.1,0.9,0.2,1.9,0.3,2.8L24.8,47.3z
			 M18.4,45.3h4.1c-0.1-0.6-0.1-1.2-0.2-1.7c-0.2-2.1-0.5-4.1-0.6-6.1c-0.1-1.3,0-2.5,0-3.8c0.1-1.7,0-3.4-0.1-5.1
			c-0.9-6.3,1.2-11.1,6.6-15.2c2.4-1.9,4.7-3.9,6.9-6c0.7-0.7,1.5-1.4,2.2-2.1l-2.4-2.5L24,14.8l-1.9-0.9l0.6-10.6h-4.9l0.8,13.2
			L5.6,2.8L3,5l3.2,2.9c3.4,3.1,6.7,6,10,8.8c1.7,1.3,2.6,3.3,2.5,5.4c-0.1,5.8-0.2,11.5-0.2,17.5L18.4,45.3z"/>
	</g>
</g>
</svg>
