<?xml version="1.0" encoding="utf-8"?>
<!-- Generator: Adobe Illustrator 23.0.2, SVG Export Plug-In . SVG Version: 6.00 Build 0)  -->
<svg version="1.1" id="Layer_1" xmlns="http://www.w3.org/2000/svg" xmlns:xlink="http://www.w3.org/1999/xlink" x="0px" y="0px"
	 viewBox="0 0 36.1 48.8" style="enable-background:new 0 0 36.1 48.8;" xml:space="preserve">
<style type="text/css">
	.st0{fill:#231F20;}
</style>
<title>Asset 34</title>
<g>
	<g id="Layer_1-2">
		<path class="st0" d="M19.5,48.8L0,31.8l6.1-5.7l9.4,10c0.3-9.4,0.2-18.8-0.5-28.2C15,5.6,14.9,3.3,14.7,1l-0.1-1h8.7l-0.9,36.4
			l8.6-10.2l5,4.7l-1.3,1.5l-0.2-0.2L19.5,48.8z M3,31.7L19.3,46l13.8-15.2L31.3,29l-8.5,10l-2.4-0.8L21.3,2h-4.5
			c0.1,2,0.2,3.9,0.3,5.8c0.5,9.9,1.1,20.1,0.3,30.7l-0.2,2.3L6,28.9L3,31.7z"/>
	</g>
</g>
</svg>
