<?xml version="1.0" encoding="utf-8"?>
<!-- Generator: Adobe Illustrator 23.0.2, SVG Export Plug-In . SVG Version: 6.00 Build 0)  -->
<svg version="1.1" id="Layer_1" xmlns="http://www.w3.org/2000/svg" xmlns:xlink="http://www.w3.org/1999/xlink" x="0px" y="0px"
	 viewBox="0 0 37.8 49" style="enable-background:new 0 0 37.8 49;" xml:space="preserve">
<style type="text/css">
	.st0{fill:#231F20;}
</style>
<title>Asset 28</title>
<g>
	<g id="Layer_1-2">
		<path class="st0" d="M22.6,49H15v-1c0-0.7,0-1.3,0-2c0-1.4,0-2.9,0-4.4c0.1-1.9,0.1-3.8,0.2-5.7c0.1-3.4,0.3-7,0.3-10.5
			c-0.1-0.8-0.4-1.5-1-2.1c-3.3-3.1-6.6-6.2-10.2-9.4l-3.5-3.2L0,10.1l5.2-5l10.6,11.3L14.9,0h7.9L22,15.2l10.7-9.5l5.1,4.8L36.2,12
			l-2.3,2l-1.2,1l-5.4,4.8c-5.4,4.8-5.4,4.8-5,12.1c0.2,4,0.4,8,0.6,12l0.1,3.2c0,0.3,0,0.5-0.1,0.8c0,0.1-0.1,0.2-0.1,0.3L22.6,49z
			 M17,47h4l-0.1-3.1c-0.2-4-0.4-7.9-0.6-11.9c-0.5-8.2-0.4-8.5,5.7-13.8c1.8-1.6,3.6-3.2,5.4-4.7l1.2-1l2.3-2l-2.2-2.1L19.8,19.9
			l1-17.9H17l0.9,16.3l-2.1,1.1L5.1,8l-2.2,2.1l2.7,2.5c3.5,3.2,6.9,6.3,10.3,9.4c1,0.9,1.5,2.2,1.6,3.6c0,3.5-0.2,7.1-0.3,10.5
			c-0.1,1.9-0.1,3.8-0.2,5.7c0,1.4,0,2.8,0,4.3L17,47z"/>
	</g>
</g>
</svg>
