<?xml version="1.0" encoding="utf-8"?>
<!-- Generator: Adobe Illustrator 23.0.2, SVG Export Plug-In . SVG Version: 6.00 Build 0)  -->
<svg version="1.1" id="Layer_1" xmlns="http://www.w3.org/2000/svg" xmlns:xlink="http://www.w3.org/1999/xlink" x="0px" y="0px"
	 viewBox="0 0 34.6 52.3" style="enable-background:new 0 0 34.6 52.3;" xml:space="preserve">
<style type="text/css">
	.st0{fill:#231F20;}
</style>
<title>Asset 59</title>
<g>
	<g id="Layer_1-2">
		<path class="st0" d="M21.5,52.3h-8.1l0.9-27.9l-9.2,10L0,29.5l0.8-0.7c1-1,2.1-1.9,3-2.9c2.2-2.2,4.5-4.3,7-6.2
			c2.9-2.2,3.8-4.6,3-8.5L5,20.9l-4.7-5.4L17,0l17.5,15.8l-4.8,4.6l-8.6-9.1c-1,3.5-0.3,5.8,2.3,8.3c2.3,2.1,4.6,4.2,7.1,6.4
			l3.3,2.9l0.8,0.7L30,34.4l-9.4-10L21.5,52.3z M15.5,50.3h4l-1-28.1l2-0.7l9.5,10l1.7-1.8l-2.5-2.2c-2.5-2.2-4.8-4.3-7.1-6.4
			c-3.6-3.4-4.3-6.9-2.3-12l0.6-1.5l9.4,10l1.8-1.7L17,2.7l-13.9,13L5,17.9l9.8-10.7l0.5,1.7c1.2,4,1.8,8.7-3.3,12.4
			c-2.4,1.9-4.6,3.9-6.8,6c-0.8,0.7-1.5,1.5-2.3,2.2l2.1,2l9.4-10.2l1.9,0.8L15.5,50.3z"/>
	</g>
</g>
</svg>
