<?xml version="1.0" encoding="utf-8"?>
<!-- Generator: Adobe Illustrator 23.0.2, SVG Export Plug-In . SVG Version: 6.00 Build 0)  -->
<svg version="1.1" id="Layer_1" xmlns="http://www.w3.org/2000/svg" xmlns:xlink="http://www.w3.org/1999/xlink" x="0px" y="0px"
	 viewBox="0 0 51.6 45.7" style="enable-background:new 0 0 51.6 45.7;" xml:space="preserve">
<style type="text/css">
	.st0{fill:#231F20;}
</style>
<title>Asset 57</title>
<g>
	<g id="Layer_1-2">
		<path class="st0" d="M6.4,45.7L0,40.2l14.1-14.9l10.1,10.9c0-0.5,0-1,0-1.5l-0.1-4.6c-0.3-8-0.5-16-0.8-24.1
			c0-1.4-0.1-3.5,2.6-4.5c2.1-0.8,3.6-0.5,5,1.1c1.7,1.9,3.4,3.7,5.2,5.6l1.5,1.6L44.9,0l6.8,5.1L38.7,21.3l-8.3-8.9l0,0v4.1
			c0.1,8.1,0.1,16.4,0.3,24.7c0.2,1.7-0.7,3.3-2.3,3.9c-1.5,0.8-3.4,0.5-4.4-0.8c-2.3-2.2-4.7-4.4-7.1-6.7c-0.7-0.7-1.5-1.4-2.2-2
			L6.4,45.7z M14.3,32.5l0.8,0.7c1,1,2,1.9,3,2.8c2.5,2.3,4.9,4.5,7.2,6.7c0.8,0.8,1.3,0.9,2.2,0.5s1.2-0.8,1.2-2
			c-0.1-8.2-0.2-16.6-0.3-24.7v-4.1c0-0.5,0-1,0.1-1.4c0-0.3,0.1-0.6,0.1-1l0.2-2.2l9.8,10.4L48.8,5.5l-3.5-2.6L37.9,13l-0.8-0.9
			l-2.3-2.5c-1.8-1.9-3.5-3.7-5.2-5.6c-0.9-1-1.5-1.1-2.9-0.6s-1.4,1-1.3,2.6c0.3,8,0.5,16,0.8,24.1l0.1,4.6c0,0.6,0,1.2,0,1.8v1.4
			L24.1,39l-10-10.8L2.9,40l3.2,2.8L14.3,32.5z"/>
	</g>
</g>
</svg>
