<?xml version="1.0" encoding="utf-8"?>
<!-- Generator: Adobe Illustrator 23.0.2, SVG Export Plug-In . SVG Version: 6.00 Build 0)  -->
<svg version="1.1" id="Layer_1" xmlns="http://www.w3.org/2000/svg" xmlns:xlink="http://www.w3.org/1999/xlink" x="0px" y="0px"
	 viewBox="0 0 24.8 47.5" style="enable-background:new 0 0 24.8 47.5;" xml:space="preserve">
<style type="text/css">
	.st0{fill:#231F20;}
</style>
<title>Asset 53</title>
<g>
	<g id="Layer_1-2">
		<path class="st0" d="M7.6,47.5H0L0.9,0l1.4,0.6c14,6.2,22,28.2,22.5,45.8v1h-7.6v-1c0-0.8,0-1.7,0-2.5c0-1.9,0-3.8,0.1-5.7
			s-0.4-2.7-1.7-3.1v12.4h-6v-4.3c0-2.6,0-5.2,0-7.8c0.1-0.7-0.1-1.5-0.6-2.1c-0.4-0.3-0.9-0.5-1.4-0.5L7.6,47.5z M2,45.5h3.6V30.9
			l0.9-0.1c1.4-0.2,2.7,0.1,3.8,1c0.9,0.9,1.4,2.2,1.3,3.5c0,2.6,0,5.2,0,7.8v2.3h1.9V32.8l1.1,0.1c3.3,0.3,4.8,2.1,4.6,5.4
			c-0.1,1.8-0.1,3.7,0,5.6c0,0.5,0,1,0,1.5h3.5C22,29,14.6,9.5,2.8,3.1L2,45.5z M18.7,32.6l-4.6-1.8c-2.7-1.1-5.1-2-7.5-3
			c-0.9-0.5-1.5-1.5-1.5-2.5c0-3.9,0-7.9,0-12V7l1.7,1.8c5.6,5.8,9.2,12.6,11.5,22L18.7,32.6z M7.1,12v1.3c0,4.2,0,8.1,0,12
			c0,0.3,0.2,0.5,0.3,0.7c2.3,1,4.7,1.9,7.4,3l1,0.4C13.9,22.2,11.1,16.7,7.1,12z"/>
	</g>
</g>
</svg>
