<?xml version="1.0" encoding="utf-8"?>
<!-- Generator: Adobe Illustrator 23.0.2, SVG Export Plug-In . SVG Version: 6.00 Build 0)  -->
<svg version="1.1" id="Layer_1" xmlns="http://www.w3.org/2000/svg" xmlns:xlink="http://www.w3.org/1999/xlink" x="0px" y="0px"
	 viewBox="0 0 29.3 41.6" style="enable-background:new 0 0 29.3 41.6;" xml:space="preserve">
<style type="text/css">
	.st0{fill:#231F20;}
</style>
<title>Asset 50</title>
<g>
	<g id="Layer_1-2">
		<path class="st0" d="M1,41.6L0,0l1.6,1.1l3.7,2.5c3,2.1,5.8,4,8.6,6.1c1.2,0.9,1.8,0.9,2.9,0.1c2.5-1.7,5.1-3.2,7.7-4.9
			c1.1-0.7,2.1-1.3,3.2-2l1.5-0.9v39.3l-1.5-1c-1.2-0.8-2.4-1.5-3.5-2.2c-2.5-1.6-4.9-3.1-7.1-4.7c-1.6-1.2-2.5-1.2-4,0
			c-2.3,1.7-4.7,3.3-7.3,4.9c-1.1,0.7-2.2,1.4-3.4,2.2L1,41.6z M2.1,3.9L2.9,38l1.9-1.3c2.5-1.6,4.9-3.1,7.1-4.8s4-1.6,6.4,0
			c2.4,1.6,4.6,3.1,7.1,4.6l1.9,1.2V5.7c-0.6,0.3-1.1,0.7-1.7,1c-2.7,1.6-5.2,3.1-7.7,4.8c-1.8,1.2-3.3,1.2-5.2-0.2
			c-2.8-2-5.6-4-8.6-6L2.1,3.9z M25.1,34l-1.5-1l-2.2-1.4c-1.7-1-3.3-2-4.8-3.1c-1.2-0.9-1.8-0.9-2.9-0.1c-1.5,1.1-3,2-4.6,2.9
			c-0.7,0.4-1.3,0.8-2,1.2l-1.5,1V10.8l1.5,0.9c0.8,0.5,1.6,1,2.3,1.4c1.8,1.1,3.3,2,4.9,2.8c0.6,0.2,1.3,0.2,1.9,0
			c1.7-1,3.3-2.1,5.1-3.3c0.7-0.5,1.4-1,2.2-1.5l1.5-1.1V34z M15,25.8c1,0,1.9,0.4,2.7,1c1.5,1.1,3,2,4.7,3.1l0.7,0.4V13.8l-0.6,0.4
			c-1.8,1.2-3.4,2.4-5.2,3.4c-1.2,0.6-2.6,0.6-3.8,0.1c-1.7-0.8-3.2-1.8-5-2.9l-0.8-0.5v15.5l0.5-0.3c1.6-0.9,3-1.8,4.4-2.8
			C13.2,26.1,14.1,25.8,15,25.8z"/>
	</g>
</g>
</svg>
