<?xml version="1.0" encoding="utf-8"?>
<!-- Generator: Adobe Illustrator 23.0.2, SVG Export Plug-In . SVG Version: 6.00 Build 0)  -->
<svg version="1.1" id="Layer_1" xmlns="http://www.w3.org/2000/svg" xmlns:xlink="http://www.w3.org/1999/xlink" x="0px" y="0px"
	 viewBox="0 0 32.5 51.8" style="enable-background:new 0 0 32.5 51.8;" xml:space="preserve">
<style type="text/css">
	.st0{fill:#231F20;}
</style>
<title>Asset 49</title>
<g>
	<g id="Layer_1-2">
		<path class="st0" d="M16.6,51.8L0,37.4l5.3-5.6l7.2,7.7V12.5l-6,7.2L2,15.5L3.2,14l0.3,0.2L16.1,0l16.4,14.4l-5.7,5.2l-6.9-7.4
			v27.2l6.3-7.6l2.6,3l0,0l1.7,1.9L29.1,38l-0.2-0.2L16.6,51.8z M2.9,37.3L16.4,49l11.2-12.7l-1.3-1.4l-6.2,7.5l-2.1-0.8V7.2l9,9.6
			l2.6-2.4L16.3,2.8L4.9,15.6l1.4,1.3L14.5,7v35l-2.1,0.3l-7.2-7.7L2.9,37.3z"/>
	</g>
</g>
</svg>
