<?xml version="1.0" encoding="utf-8"?>
<!-- Generator: Adobe Illustrator 23.0.2, SVG Export Plug-In . SVG Version: 6.00 Build 0)  -->
<svg version="1.1" id="Layer_1" xmlns="http://www.w3.org/2000/svg" xmlns:xlink="http://www.w3.org/1999/xlink" x="0px" y="0px"
	 viewBox="0 0 23.7 45.4" style="enable-background:new 0 0 23.7 45.4;" xml:space="preserve">
<style type="text/css">
	.st0{fill:#231F20;}
</style>
<title>Asset 46</title>
<g>
	<g id="Layer_1-2">
		<path class="st0" d="M7.1,45.4H0V0l4.9,3l7.7,4.8l1.6,1c2.5,1.6,5.1,3.1,7.5,4.8c1,0.6,1.7,1.6,1.9,2.7c0.1,7.5,0.1,14.8,0.1,22.6
			v6.5h-7.8l0.1-1.1c0.1-0.8,0.1-1.5,0.2-2.3c0.1-1.6,0.3-3.1,0.3-4.6c0.1-5.2,0.1-11.2,0-17.1c-0.1-0.9-0.5-1.7-1.2-2.3
			c-2.3-1.7-4.7-3.3-7.3-5l-1.7-1.1V14c0,4,0,7.7,0.1,11.4l0,0c0,0,0.1,0.4,1,1.2c5,4.6,7.7,11.1,7.5,17.8l-0.1,0.9H8.3v-1.3
			c0.1-3.5,0.2-6.9-1.9-9.7L7.1,45.4z M2,43.4h3L4,29.6l1.8,1.4c4.4,3.4,4.6,8,4.5,12.4h2.6c-0.1-5.8-2.5-11.3-6.8-15.2
			c-0.9-0.6-1.5-1.6-1.7-2.7C4.3,21.7,4.3,17.9,4.3,14V8.1l1.5,1L9,11.2c2.6,1.7,5.1,3.3,7.4,5c1.2,1,1.9,2.3,2,3.9
			c0.1,6,0.1,12,0,17.2c0,1.6-0.1,3.1-0.3,4.8c0,0.4-0.1,0.8-0.1,1.2h3.6v-4.4c0-7.8,0-15.1-0.1-22.6c-0.2-0.4-0.5-0.8-1-1
			c-2.5-1.6-5-3.2-7.5-4.8l-1.6-1L3.9,4.8L2,3.6V43.4z"/>
	</g>
</g>
</svg>
