<?xml version="1.0" encoding="utf-8"?>
<!-- Generator: Adobe Illustrator 23.0.2, SVG Export Plug-In . SVG Version: 6.00 Build 0)  -->
<svg version="1.1" id="Layer_1" xmlns="http://www.w3.org/2000/svg" xmlns:xlink="http://www.w3.org/1999/xlink" x="0px" y="0px"
	 viewBox="0 0 32.7 45.3" style="enable-background:new 0 0 32.7 45.3;" xml:space="preserve">
<style type="text/css">
	.st0{fill:#231F20;}
</style>
<title>Asset 41</title>
<g>
	<g id="Layer_1-2">
		<path class="st0" d="M7,45.3l-7-4.5L0.6,40l3.1-4.5c2.8-4,5.4-7.9,8.1-11.7c0.7-0.7,0.7-1.8,0-2.5c-2.7-3.9-5.2-7.7-7.9-11.8
			l-3-4.6L0.3,4l6.4-4l0.6,0.9l9,15.9L25.8,0l6.5,4l-3.6,5.4c-2.7,4.1-5.2,7.9-7.9,11.8c-0.7,0.7-0.6,1.8,0.1,2.5
			c2.7,3.9,5.3,7.7,8,11.8l3.1,4.5l0.6,0.9l-7,4.4l-9.3-16.4L7,45.3z M2.8,40.3l3.5,2.2l10-17.7l10,17.6l3.5-2.2
			c-0.8-1.2-1.7-2.5-2.5-3.7c-2.7-4.1-5.3-7.9-8-11.7c-1.2-1.4-1.2-3.4-0.1-4.8c2.6-3.9,5.2-7.7,7.9-11.8l2.4-3.7l-3-1.8L16.3,20.9
			L6.1,2.8l-3,1.9c0.8,1.3,1.6,2.5,2.5,3.7c2.7,4.1,5.2,7.9,7.9,11.8c1.1,1.4,1.1,3.4-0.1,4.8c-2.7,3.9-5.3,7.7-8,11.7L2.8,40.3z"/>
	</g>
</g>
</svg>
