<?xml version="1.0" encoding="utf-8"?>
<!-- Generator: Adobe Illustrator 23.0.2, SVG Export Plug-In . SVG Version: 6.00 Build 0)  -->
<svg version="1.1" id="Layer_1" xmlns="http://www.w3.org/2000/svg" xmlns:xlink="http://www.w3.org/1999/xlink" x="0px" y="0px"
	 viewBox="0 0 37.5 45.4" style="enable-background:new 0 0 37.5 45.4;" xml:space="preserve">
<style type="text/css">
	.st0{fill:#231F20;}
</style>
<title>Asset 69</title>
<g>
	<g id="Layer_1-2">
		<path class="st0" d="M31.4,45.4L23,33.7l-4.3,4l-3.9-3.5L8.3,45.2l-6.6-4.2l8.4-11.6L3,22.8l6.5-7L0,5.2l5.9-4.8l7.6,11l5.3-5.7
			l4.2,4.7L28.9,0l6.4,4.1l-8.2,10.8l7.3,7.8L27.6,29l9.9,11.6L31.4,45.4z M23.3,30.7l8.5,11.8l2.8-2.3l-9.8-11.5l6.7-6.3L24.5,15
			l7.9-10.4l-2.8-1.8l-6.2,11l-4.6-5.2l-5.6,5.9L5.4,3.3L2.9,5.4l9.3,10.4l-6.3,6.8l7,6.5L4.6,40.4l3,2l6.7-11.2l4.3,3.8L23.3,30.7z
			 M18.9,32.9l-3.5-3.2l3.3-5.2l3.6,4.8L18.9,32.9z M17.9,29.4l0.8,0.8l0.9-0.9L18.8,28L17.9,29.4z M13.7,27.7l-4.9-5.4l4.6-4.4
			l3.8,4.7L13.7,27.7z M11.6,22.4l1.9,2.1l1.3-1.8l-1.5-1.9L11.6,22.4z M24.2,27.4l-0.7-0.7c-3.9-3.9-3.9-4.5-0.6-8.4l0.7-0.8l5.4,5
			L24.2,27.4z M23.7,20.4c-0.8,0.9-1.3,1.6-1.2,2s0.7,1.2,1.7,2.2l1.9-2L23.7,20.4z M18.7,21L15,16.6l3.5-3.2l0.6,0.4
			c0.9,0.4,1.6,1.2,1.9,2.1c0.1,1-0.3,2-1,2.7c-0.3,0.3-0.5,0.6-0.7,1L18.7,21z M17.7,16.8l0.6,0.7l0.1-0.1c0.2-0.3,0.7-0.9,0.6-1
			c0,0,0-0.1-0.3-0.4L17.7,16.8z"/>
	</g>
</g>
</svg>
