<?xml version="1.0" encoding="utf-8"?>
<!-- Generator: Adobe Illustrator 23.0.2, SVG Export Plug-In . SVG Version: 6.00 Build 0)  -->
<svg version="1.1" id="Layer_1" xmlns="http://www.w3.org/2000/svg" xmlns:xlink="http://www.w3.org/1999/xlink" x="0px" y="0px"
	 viewBox="0 0 39.9 50" style="enable-background:new 0 0 39.9 50;" xml:space="preserve">
<style type="text/css">
	.st0{fill:#231F20;}
</style>
<title>Asset 67</title>
<g>
	<g id="Layer_1-2">
		<path class="st0" d="M34.8,50L23.6,38.3l0.5,10.4h-8.4l0.5-10.5L5.4,50L0,44.4l2.7-2.5c1.7-1.5,3.4-3,5.1-4.6
			c0.5-0.4,0.9-0.9,1.3-1.3c0.9-1,1.9-1.9,3-2.6c3.9-2.4,5.2-5.9,4.6-11.9c-0.1-0.8-0.5-1.6-1.2-2.1C12,16,8.4,12.7,4.6,9.3L0.1,5.2
			L5,0l11.6,12.1L15.9,1.3H24l-0.9,10.9L34.4,0.1l5.2,5.6l-0.7,0.7l-3.8,3.6c-3.3,3.1-6.8,6.4-10.3,9.5C23.7,20.5,23,22,23,23.6
			c-0.5,4.4,1,7.6,4.6,10.5c2.7,2.1,5.3,4.4,7.9,6.8c1.1,1,2.3,2.1,3.5,3.1l0.8,0.7L34.8,50z M23.4,35.1l11.4,12l2.2-2.3
			c-0.9-0.8-1.8-1.6-2.7-2.4c-2.6-2.4-5.1-4.6-7.8-6.7c-4.3-3.3-6-7.2-5.4-12.3c0.1-2.1,1-4.1,2.5-5.5c3.5-3.1,6.9-6.3,10.2-9.5
			l3.1-2.9L34.4,3L22.8,15.6L21,14.5l0.9-11.2H18l0.8,11.1l-2,0.8L5,2.9L2.9,5.1L6,7.8c3.8,3.4,7.3,6.7,10.9,10
			c1,0.9,1.6,2.1,1.8,3.4c0.4,4.5,0.2,10.2-5.5,13.8c-1,0.7-1.8,1.4-2.6,2.3c-0.5,0.5-0.9,1-1.4,1.4l-5.1,4.7l-1.2,1.1L5.4,47
			l13.1-14.2l-0.6,13.9H22l-0.5-10.6L23.4,35.1z"/>
	</g>
</g>
</svg>
